<?xml version="1.0" encoding="utf-8" standalone="no"?>
<!DOCTYPE svg PUBLIC "-//W3C//DTD SVG 1.1//EN"
  "http://www.w3.org/Graphics/SVG/1.1/DTD/svg11.dtd">
<svg xmlns:xlink="http://www.w3.org/1999/xlink" width="456.715937pt" height="322.631875pt" viewBox="0 0 456.715937 322.631875" xmlns="http://www.w3.org/2000/svg" version="1.1">
 <metadata>
  <rdf:RDF xmlns:dc="http://purl.org/dc/elements/1.1/" xmlns:cc="http://creativecommons.org/ns#" xmlns:rdf="http://www.w3.org/1999/02/22-rdf-syntax-ns#">
   <cc:Work>
    <dc:type rdf:resource="http://purl.org/dc/dcmitype/StillImage"/>
    <dc:date>2022-12-18T21:09:10.893131</dc:date>
    <dc:format>image/svg+xml</dc:format>
    <dc:creator>
     <cc:Agent>
      <dc:title>Matplotlib v3.5.2, https://matplotlib.org/</dc:title>
     </cc:Agent>
    </dc:creator>
   </cc:Work>
  </rdf:RDF>
 </metadata>
 <defs>
  <style type="text/css">*{stroke-linejoin: round; stroke-linecap: butt}</style>
 </defs>
 <g id="figure_1">
  <g id="patch_1">
   <path d="M 0 322.631875 
L 456.715937 322.631875 
L 456.715937 0 
L 0 0 
L 0 322.631875 
z
" style="fill: none"/>
  </g>
  <g id="axes_1">
   <g id="patch_2">
    <path d="M 58.915938 279 
L 449.515938 279 
L 449.515938 7.2 
L 58.915938 7.2 
z
" style="fill: #ffffff"/>
   </g>
   <g id="matplotlib.axis_1">
    <g id="xtick_1">
     <g id="line2d_1">
      <path d="M 76.670483 279 
L 76.670483 7.2 
" clip-path="url(#pb05fc99e4e)" style="fill: none; stroke: #b0b0b0; stroke-width: 0.8; stroke-linecap: square"/>
     </g>
     <g id="line2d_2">
      <defs>
       <path id="m5fcdcfd58a" d="M 0 0 
L 0 3.5 
" style="stroke: #000000; stroke-width: 0.8"/>
      </defs>
      <g>
       <use xlink:href="#m5fcdcfd58a" x="76.670483" y="279" style="stroke: #000000; stroke-width: 0.8"/>
      </g>
     </g>
     <g id="text_1">
      <!-- 0.00 -->
      <g transform="translate(64.420483 295.72125)scale(0.14 -0.14)">
       <defs>
        <path id="TimesNewRomanPSMT-30" d="M 231 2094 
Q 231 2819 450 3342 
Q 669 3866 1031 4122 
Q 1313 4325 1613 4325 
Q 2100 4325 2488 3828 
Q 2972 3213 2972 2159 
Q 2972 1422 2759 906 
Q 2547 391 2217 158 
Q 1888 -75 1581 -75 
Q 975 -75 572 641 
Q 231 1244 231 2094 
z
M 844 2016 
Q 844 1141 1059 588 
Q 1238 122 1591 122 
Q 1759 122 1940 273 
Q 2122 425 2216 781 
Q 2359 1319 2359 2297 
Q 2359 3022 2209 3506 
Q 2097 3866 1919 4016 
Q 1791 4119 1609 4119 
Q 1397 4119 1231 3928 
Q 1006 3669 925 3112 
Q 844 2556 844 2016 
z
" transform="scale(0.015625)"/>
        <path id="TimesNewRomanPSMT-2e" d="M 800 606 
Q 947 606 1047 504 
Q 1147 403 1147 259 
Q 1147 116 1045 14 
Q 944 -88 800 -88 
Q 656 -88 554 14 
Q 453 116 453 259 
Q 453 406 554 506 
Q 656 606 800 606 
z
" transform="scale(0.015625)"/>
       </defs>
       <use xlink:href="#TimesNewRomanPSMT-30"/>
       <use xlink:href="#TimesNewRomanPSMT-2e" x="50"/>
       <use xlink:href="#TimesNewRomanPSMT-30" x="75"/>
       <use xlink:href="#TimesNewRomanPSMT-30" x="125"/>
      </g>
     </g>
    </g>
    <g id="xtick_2">
     <g id="line2d_3">
      <path d="M 125.004478 279 
L 125.004478 7.2 
" clip-path="url(#pb05fc99e4e)" style="fill: none; stroke: #b0b0b0; stroke-width: 0.8; stroke-linecap: square"/>
     </g>
     <g id="line2d_4">
      <g>
       <use xlink:href="#m5fcdcfd58a" x="125.004478" y="279" style="stroke: #000000; stroke-width: 0.8"/>
      </g>
     </g>
     <g id="text_2">
      <!-- 0.05 -->
      <g transform="translate(112.754478 295.72125)scale(0.14 -0.14)">
       <defs>
        <path id="TimesNewRomanPSMT-35" d="M 2778 4238 
L 2534 3706 
L 1259 3706 
L 981 3138 
Q 1809 3016 2294 2522 
Q 2709 2097 2709 1522 
Q 2709 1188 2573 903 
Q 2438 619 2231 419 
Q 2025 219 1772 97 
Q 1413 -75 1034 -75 
Q 653 -75 479 54 
Q 306 184 306 341 
Q 306 428 378 495 
Q 450 563 559 563 
Q 641 563 702 538 
Q 763 513 909 409 
Q 1144 247 1384 247 
Q 1750 247 2026 523 
Q 2303 800 2303 1197 
Q 2303 1581 2056 1914 
Q 1809 2247 1375 2428 
Q 1034 2569 447 2591 
L 1259 4238 
L 2778 4238 
z
" transform="scale(0.015625)"/>
       </defs>
       <use xlink:href="#TimesNewRomanPSMT-30"/>
       <use xlink:href="#TimesNewRomanPSMT-2e" x="50"/>
       <use xlink:href="#TimesNewRomanPSMT-30" x="75"/>
       <use xlink:href="#TimesNewRomanPSMT-35" x="125"/>
      </g>
     </g>
    </g>
    <g id="xtick_3">
     <g id="line2d_5">
      <path d="M 173.338474 279 
L 173.338474 7.2 
" clip-path="url(#pb05fc99e4e)" style="fill: none; stroke: #b0b0b0; stroke-width: 0.8; stroke-linecap: square"/>
     </g>
     <g id="line2d_6">
      <g>
       <use xlink:href="#m5fcdcfd58a" x="173.338474" y="279" style="stroke: #000000; stroke-width: 0.8"/>
      </g>
     </g>
     <g id="text_3">
      <!-- 0.10 -->
      <g transform="translate(161.088474 295.72125)scale(0.14 -0.14)">
       <defs>
        <path id="TimesNewRomanPSMT-31" d="M 750 3822 
L 1781 4325 
L 1884 4325 
L 1884 747 
Q 1884 391 1914 303 
Q 1944 216 2037 169 
Q 2131 122 2419 116 
L 2419 0 
L 825 0 
L 825 116 
Q 1125 122 1212 167 
Q 1300 213 1334 289 
Q 1369 366 1369 747 
L 1369 3034 
Q 1369 3497 1338 3628 
Q 1316 3728 1258 3775 
Q 1200 3822 1119 3822 
Q 1003 3822 797 3725 
L 750 3822 
z
" transform="scale(0.015625)"/>
       </defs>
       <use xlink:href="#TimesNewRomanPSMT-30"/>
       <use xlink:href="#TimesNewRomanPSMT-2e" x="50"/>
       <use xlink:href="#TimesNewRomanPSMT-31" x="75"/>
       <use xlink:href="#TimesNewRomanPSMT-30" x="125"/>
      </g>
     </g>
    </g>
    <g id="xtick_4">
     <g id="line2d_7">
      <path d="M 221.672469 279 
L 221.672469 7.2 
" clip-path="url(#pb05fc99e4e)" style="fill: none; stroke: #b0b0b0; stroke-width: 0.8; stroke-linecap: square"/>
     </g>
     <g id="line2d_8">
      <g>
       <use xlink:href="#m5fcdcfd58a" x="221.672469" y="279" style="stroke: #000000; stroke-width: 0.8"/>
      </g>
     </g>
     <g id="text_4">
      <!-- 0.15 -->
      <g transform="translate(209.422469 295.72125)scale(0.14 -0.14)">
       <use xlink:href="#TimesNewRomanPSMT-30"/>
       <use xlink:href="#TimesNewRomanPSMT-2e" x="50"/>
       <use xlink:href="#TimesNewRomanPSMT-31" x="75"/>
       <use xlink:href="#TimesNewRomanPSMT-35" x="125"/>
      </g>
     </g>
    </g>
    <g id="xtick_5">
     <g id="line2d_9">
      <path d="M 270.006464 279 
L 270.006464 7.2 
" clip-path="url(#pb05fc99e4e)" style="fill: none; stroke: #b0b0b0; stroke-width: 0.8; stroke-linecap: square"/>
     </g>
     <g id="line2d_10">
      <g>
       <use xlink:href="#m5fcdcfd58a" x="270.006464" y="279" style="stroke: #000000; stroke-width: 0.8"/>
      </g>
     </g>
     <g id="text_5">
      <!-- 0.20 -->
      <g transform="translate(257.756464 295.72125)scale(0.14 -0.14)">
       <defs>
        <path id="TimesNewRomanPSMT-32" d="M 2934 816 
L 2638 0 
L 138 0 
L 138 116 
Q 1241 1122 1691 1759 
Q 2141 2397 2141 2925 
Q 2141 3328 1894 3587 
Q 1647 3847 1303 3847 
Q 991 3847 742 3664 
Q 494 3481 375 3128 
L 259 3128 
Q 338 3706 661 4015 
Q 984 4325 1469 4325 
Q 1984 4325 2329 3994 
Q 2675 3663 2675 3213 
Q 2675 2891 2525 2569 
Q 2294 2063 1775 1497 
Q 997 647 803 472 
L 1909 472 
Q 2247 472 2383 497 
Q 2519 522 2628 598 
Q 2738 675 2819 816 
L 2934 816 
z
" transform="scale(0.015625)"/>
       </defs>
       <use xlink:href="#TimesNewRomanPSMT-30"/>
       <use xlink:href="#TimesNewRomanPSMT-2e" x="50"/>
       <use xlink:href="#TimesNewRomanPSMT-32" x="75"/>
       <use xlink:href="#TimesNewRomanPSMT-30" x="125"/>
      </g>
     </g>
    </g>
    <g id="xtick_6">
     <g id="line2d_11">
      <path d="M 318.34046 279 
L 318.34046 7.2 
" clip-path="url(#pb05fc99e4e)" style="fill: none; stroke: #b0b0b0; stroke-width: 0.8; stroke-linecap: square"/>
     </g>
     <g id="line2d_12">
      <g>
       <use xlink:href="#m5fcdcfd58a" x="318.34046" y="279" style="stroke: #000000; stroke-width: 0.8"/>
      </g>
     </g>
     <g id="text_6">
      <!-- 0.25 -->
      <g transform="translate(306.09046 295.72125)scale(0.14 -0.14)">
       <use xlink:href="#TimesNewRomanPSMT-30"/>
       <use xlink:href="#TimesNewRomanPSMT-2e" x="50"/>
       <use xlink:href="#TimesNewRomanPSMT-32" x="75"/>
       <use xlink:href="#TimesNewRomanPSMT-35" x="125"/>
      </g>
     </g>
    </g>
    <g id="xtick_7">
     <g id="line2d_13">
      <path d="M 366.674455 279 
L 366.674455 7.2 
" clip-path="url(#pb05fc99e4e)" style="fill: none; stroke: #b0b0b0; stroke-width: 0.8; stroke-linecap: square"/>
     </g>
     <g id="line2d_14">
      <g>
       <use xlink:href="#m5fcdcfd58a" x="366.674455" y="279" style="stroke: #000000; stroke-width: 0.8"/>
      </g>
     </g>
     <g id="text_7">
      <!-- 0.30 -->
      <g transform="translate(354.424455 295.72125)scale(0.14 -0.14)">
       <defs>
        <path id="TimesNewRomanPSMT-33" d="M 325 3431 
Q 506 3859 782 4092 
Q 1059 4325 1472 4325 
Q 1981 4325 2253 3994 
Q 2459 3747 2459 3466 
Q 2459 3003 1878 2509 
Q 2269 2356 2469 2072 
Q 2669 1788 2669 1403 
Q 2669 853 2319 450 
Q 1863 -75 997 -75 
Q 569 -75 414 31 
Q 259 138 259 259 
Q 259 350 332 419 
Q 406 488 509 488 
Q 588 488 669 463 
Q 722 447 909 348 
Q 1097 250 1169 231 
Q 1284 197 1416 197 
Q 1734 197 1970 444 
Q 2206 691 2206 1028 
Q 2206 1275 2097 1509 
Q 2016 1684 1919 1775 
Q 1784 1900 1550 2001 
Q 1316 2103 1072 2103 
L 972 2103 
L 972 2197 
Q 1219 2228 1467 2375 
Q 1716 2522 1828 2728 
Q 1941 2934 1941 3181 
Q 1941 3503 1739 3701 
Q 1538 3900 1238 3900 
Q 753 3900 428 3381 
L 325 3431 
z
" transform="scale(0.015625)"/>
       </defs>
       <use xlink:href="#TimesNewRomanPSMT-30"/>
       <use xlink:href="#TimesNewRomanPSMT-2e" x="50"/>
       <use xlink:href="#TimesNewRomanPSMT-33" x="75"/>
       <use xlink:href="#TimesNewRomanPSMT-30" x="125"/>
      </g>
     </g>
    </g>
    <g id="xtick_8">
     <g id="line2d_15">
      <path d="M 415.008451 279 
L 415.008451 7.2 
" clip-path="url(#pb05fc99e4e)" style="fill: none; stroke: #b0b0b0; stroke-width: 0.8; stroke-linecap: square"/>
     </g>
     <g id="line2d_16">
      <g>
       <use xlink:href="#m5fcdcfd58a" x="415.008451" y="279" style="stroke: #000000; stroke-width: 0.8"/>
      </g>
     </g>
     <g id="text_8">
      <!-- 0.35 -->
      <g transform="translate(402.758451 295.72125)scale(0.14 -0.14)">
       <use xlink:href="#TimesNewRomanPSMT-30"/>
       <use xlink:href="#TimesNewRomanPSMT-2e" x="50"/>
       <use xlink:href="#TimesNewRomanPSMT-33" x="75"/>
       <use xlink:href="#TimesNewRomanPSMT-35" x="125"/>
      </g>
     </g>
    </g>
    <g id="text_9">
     <!-- $\mathit{x}$, м -->
     <g transform="translate(243.155938 312.437188)scale(0.14 -0.14)">
      <defs>
       <path id="STIXGeneral-Italic-78" d="M 1555 2272 
L 1632 1907 
Q 1971 2426 2179 2624 
Q 2387 2822 2598 2822 
Q 2714 2822 2787 2755 
Q 2861 2688 2861 2585 
Q 2861 2483 2800 2419 
Q 2739 2355 2643 2355 
Q 2586 2355 2490 2409 
Q 2394 2464 2310 2464 
Q 2125 2464 1683 1690 
Q 1683 1606 1734 1402 
L 1939 544 
Q 2003 282 2131 282 
Q 2234 282 2432 538 
Q 2451 563 2476 598 
Q 2502 634 2521 662 
Q 2541 691 2566 717 
L 2662 659 
Q 2387 230 2227 80 
Q 2067 -70 1882 -70 
Q 1728 -70 1645 26 
Q 1562 122 1504 365 
L 1318 1126 
L 755 365 
Q 557 96 432 13 
Q 307 -70 147 -70 
Q 0 -70 -86 0 
Q -173 70 -173 198 
Q -173 294 -112 361 
Q -51 429 45 429 
Q 122 429 250 358 
Q 346 301 416 301 
Q 525 301 742 614 
L 1267 1357 
L 1088 2150 
Q 1024 2432 969 2509 
Q 915 2586 794 2586 
Q 717 2586 544 2541 
L 429 2509 
L 410 2611 
L 480 2637 
Q 992 2822 1229 2822 
Q 1350 2822 1420 2707 
Q 1491 2592 1555 2272 
z
" transform="scale(0.015625)"/>
       <path id="TimesNewRomanPSMT-2c" d="M 344 -1066 
L 344 -928 
Q 666 -822 842 -598 
Q 1019 -375 1019 -125 
Q 1019 -66 991 -25 
Q 969 3 947 3 
Q 913 3 797 -59 
Q 741 -88 678 -88 
Q 525 -88 434 3 
Q 344 94 344 253 
Q 344 406 461 515 
Q 578 625 747 625 
Q 953 625 1114 445 
Q 1275 266 1275 -31 
Q 1275 -353 1051 -629 
Q 828 -906 344 -1066 
z
" transform="scale(0.015625)"/>
       <path id="TimesNewRomanPSMT-20" transform="scale(0.015625)"/>
       <path id="TimesNewRomanPSMT-43c" d="M 2050 747 
L 2944 2863 
L 3909 2863 
L 3909 2744 
Q 3697 2744 3626 2701 
Q 3556 2659 3515 2596 
Q 3475 2534 3475 2191 
L 3475 672 
Q 3475 375 3504 289 
Q 3534 203 3626 159 
Q 3719 116 3909 116 
L 3909 0 
L 2525 0 
L 2525 116 
Q 2781 116 2868 211 
Q 2956 306 2956 672 
L 2956 2394 
L 1944 0 
L 1834 0 
L 803 2394 
L 803 672 
Q 803 375 834 289 
Q 866 203 956 159 
Q 1047 116 1238 116 
L 1238 0 
L 144 0 
L 144 116 
Q 422 116 500 217 
Q 578 319 578 672 
L 578 2191 
Q 578 2525 543 2586 
Q 509 2647 437 2695 
Q 366 2744 144 2744 
L 144 2863 
L 1150 2863 
L 2050 747 
z
" transform="scale(0.015625)"/>
      </defs>
      <use xlink:href="#STIXGeneral-Italic-78" transform="translate(0 0.265625)"/>
      <use xlink:href="#TimesNewRomanPSMT-2c" transform="translate(44.399994 0.265625)"/>
      <use xlink:href="#TimesNewRomanPSMT-20" transform="translate(69.399994 0.265625)"/>
      <use xlink:href="#TimesNewRomanPSMT-43c" transform="translate(94.399994 0.265625)"/>
     </g>
    </g>
   </g>
   <g id="matplotlib.axis_2">
    <g id="ytick_1">
     <g id="line2d_17">
      <path d="M 58.915938 279 
L 449.515938 279 
" clip-path="url(#pb05fc99e4e)" style="fill: none; stroke: #b0b0b0; stroke-width: 0.8; stroke-linecap: square"/>
     </g>
     <g id="line2d_18">
      <defs>
       <path id="m17d8d62624" d="M 0 0 
L -3.5 0 
" style="stroke: #000000; stroke-width: 0.8"/>
      </defs>
      <g>
       <use xlink:href="#m17d8d62624" x="58.915938" y="279" style="stroke: #000000; stroke-width: 0.8"/>
      </g>
     </g>
     <g id="text_10">
      <!-- 0 -->
      <g transform="translate(44.915938 283.860625)scale(0.14 -0.14)">
       <use xlink:href="#TimesNewRomanPSMT-30"/>
      </g>
     </g>
    </g>
    <g id="ytick_2">
     <g id="line2d_19">
      <path d="M 58.915938 236.760065 
L 449.515938 236.760065 
" clip-path="url(#pb05fc99e4e)" style="fill: none; stroke: #b0b0b0; stroke-width: 0.8; stroke-linecap: square"/>
     </g>
     <g id="line2d_20">
      <g>
       <use xlink:href="#m17d8d62624" x="58.915938" y="236.760065" style="stroke: #000000; stroke-width: 0.8"/>
      </g>
     </g>
     <g id="text_11">
      <!-- 500 -->
      <g transform="translate(30.915938 241.62069)scale(0.14 -0.14)">
       <use xlink:href="#TimesNewRomanPSMT-35"/>
       <use xlink:href="#TimesNewRomanPSMT-30" x="50"/>
       <use xlink:href="#TimesNewRomanPSMT-30" x="100"/>
      </g>
     </g>
    </g>
    <g id="ytick_3">
     <g id="line2d_21">
      <path d="M 58.915938 194.52013 
L 449.515938 194.52013 
" clip-path="url(#pb05fc99e4e)" style="fill: none; stroke: #b0b0b0; stroke-width: 0.8; stroke-linecap: square"/>
     </g>
     <g id="line2d_22">
      <g>
       <use xlink:href="#m17d8d62624" x="58.915938" y="194.52013" style="stroke: #000000; stroke-width: 0.8"/>
      </g>
     </g>
     <g id="text_12">
      <!-- 1000 -->
      <g transform="translate(23.915938 199.380755)scale(0.14 -0.14)">
       <use xlink:href="#TimesNewRomanPSMT-31"/>
       <use xlink:href="#TimesNewRomanPSMT-30" x="50"/>
       <use xlink:href="#TimesNewRomanPSMT-30" x="100"/>
       <use xlink:href="#TimesNewRomanPSMT-30" x="150"/>
      </g>
     </g>
    </g>
    <g id="ytick_4">
     <g id="line2d_23">
      <path d="M 58.915938 152.280195 
L 449.515938 152.280195 
" clip-path="url(#pb05fc99e4e)" style="fill: none; stroke: #b0b0b0; stroke-width: 0.8; stroke-linecap: square"/>
     </g>
     <g id="line2d_24">
      <g>
       <use xlink:href="#m17d8d62624" x="58.915938" y="152.280195" style="stroke: #000000; stroke-width: 0.8"/>
      </g>
     </g>
     <g id="text_13">
      <!-- 1500 -->
      <g transform="translate(23.915938 157.14082)scale(0.14 -0.14)">
       <use xlink:href="#TimesNewRomanPSMT-31"/>
       <use xlink:href="#TimesNewRomanPSMT-35" x="50"/>
       <use xlink:href="#TimesNewRomanPSMT-30" x="100"/>
       <use xlink:href="#TimesNewRomanPSMT-30" x="150"/>
      </g>
     </g>
    </g>
    <g id="ytick_5">
     <g id="line2d_25">
      <path d="M 58.915938 110.04026 
L 449.515938 110.04026 
" clip-path="url(#pb05fc99e4e)" style="fill: none; stroke: #b0b0b0; stroke-width: 0.8; stroke-linecap: square"/>
     </g>
     <g id="line2d_26">
      <g>
       <use xlink:href="#m17d8d62624" x="58.915938" y="110.04026" style="stroke: #000000; stroke-width: 0.8"/>
      </g>
     </g>
     <g id="text_14">
      <!-- 2000 -->
      <g transform="translate(23.915938 114.900885)scale(0.14 -0.14)">
       <use xlink:href="#TimesNewRomanPSMT-32"/>
       <use xlink:href="#TimesNewRomanPSMT-30" x="50"/>
       <use xlink:href="#TimesNewRomanPSMT-30" x="100"/>
       <use xlink:href="#TimesNewRomanPSMT-30" x="150"/>
      </g>
     </g>
    </g>
    <g id="ytick_6">
     <g id="line2d_27">
      <path d="M 58.915938 67.800325 
L 449.515938 67.800325 
" clip-path="url(#pb05fc99e4e)" style="fill: none; stroke: #b0b0b0; stroke-width: 0.8; stroke-linecap: square"/>
     </g>
     <g id="line2d_28">
      <g>
       <use xlink:href="#m17d8d62624" x="58.915938" y="67.800325" style="stroke: #000000; stroke-width: 0.8"/>
      </g>
     </g>
     <g id="text_15">
      <!-- 2500 -->
      <g transform="translate(23.915938 72.66095)scale(0.14 -0.14)">
       <use xlink:href="#TimesNewRomanPSMT-32"/>
       <use xlink:href="#TimesNewRomanPSMT-35" x="50"/>
       <use xlink:href="#TimesNewRomanPSMT-30" x="100"/>
       <use xlink:href="#TimesNewRomanPSMT-30" x="150"/>
      </g>
     </g>
    </g>
    <g id="ytick_7">
     <g id="line2d_29">
      <path d="M 58.915938 25.56039 
L 449.515938 25.56039 
" clip-path="url(#pb05fc99e4e)" style="fill: none; stroke: #b0b0b0; stroke-width: 0.8; stroke-linecap: square"/>
     </g>
     <g id="line2d_30">
      <g>
       <use xlink:href="#m17d8d62624" x="58.915938" y="25.56039" style="stroke: #000000; stroke-width: 0.8"/>
      </g>
     </g>
     <g id="text_16">
      <!-- 3000 -->
      <g transform="translate(23.915938 30.421015)scale(0.14 -0.14)">
       <use xlink:href="#TimesNewRomanPSMT-33"/>
       <use xlink:href="#TimesNewRomanPSMT-30" x="50"/>
       <use xlink:href="#TimesNewRomanPSMT-30" x="100"/>
       <use xlink:href="#TimesNewRomanPSMT-30" x="150"/>
      </g>
     </g>
    </g>
    <g id="text_17">
     <!-- $\mathit{T}$, К -->
     <g transform="translate(16.92125 155.21)rotate(-90)scale(0.14 -0.14)">
      <defs>
       <path id="STIXGeneral-Italic-54" d="M 4051 4179 
L 3770 3130 
L 3661 3142 
Q 3680 3302 3680 3437 
Q 3680 3955 3034 3955 
L 2662 3955 
L 1786 819 
Q 1696 506 1696 397 
Q 1696 250 1766 195 
Q 1837 141 2035 122 
L 2259 102 
L 2259 0 
L 416 0 
L 416 102 
Q 749 134 889 230 
Q 1030 326 1101 582 
L 2016 3955 
Q 1254 3955 988 3817 
Q 723 3680 493 3162 
L 378 3187 
L 646 4179 
L 4051 4179 
z
" transform="scale(0.015625)"/>
       <path id="TimesNewRomanPSMT-41a" d="M 4247 116 
L 4247 0 
L 3153 0 
Q 2975 284 2403 1073 
Q 1831 1863 1706 1948 
Q 1581 2034 1328 2038 
L 1328 772 
Q 1328 353 1436 240 
Q 1544 128 1941 116 
L 1941 0 
L 116 0 
L 116 116 
Q 506 128 617 239 
Q 728 350 728 772 
L 728 3466 
Q 728 3884 618 3996 
Q 509 4109 116 4122 
L 116 4238 
L 1941 4238 
L 1941 4122 
Q 1544 4109 1436 3996 
Q 1328 3884 1328 3466 
L 1328 2284 
Q 1669 2288 1800 2330 
Q 1931 2372 2095 2522 
Q 2259 2672 2354 2845 
Q 2450 3019 2600 3416 
Q 2741 3788 2830 3933 
Q 2919 4078 3116 4183 
Q 3313 4288 3584 4288 
Q 4066 4288 4066 3950 
Q 4066 3831 3970 3743 
Q 3875 3656 3753 3656 
Q 3666 3656 3459 3756 
Q 3278 3847 3206 3847 
Q 3106 3847 3034 3742 
Q 2963 3638 2806 3209 
Q 2506 2409 2041 2194 
Q 2325 2144 2828 1416 
Q 3363 644 3613 384 
Q 3863 125 4247 116 
z
" transform="scale(0.015625)"/>
      </defs>
      <use xlink:href="#STIXGeneral-Italic-54"/>
      <use xlink:href="#TimesNewRomanPSMT-2c" transform="translate(55.599991 0)"/>
      <use xlink:href="#TimesNewRomanPSMT-20" transform="translate(80.599991 0)"/>
      <use xlink:href="#TimesNewRomanPSMT-41a" transform="translate(105.599991 0)"/>
     </g>
    </g>
   </g>
   <g id="line2d_31">
    <path d="M 76.670483 17.635333 
L 142.984312 17.748348 
L 156.777588 17.964841 
L 162.259532 18.238972 
L 177.467503 19.498881 
L 182.065262 20.153493 
L 185.955673 20.878106 
L 189.846085 21.836549 
L 192.321801 22.643586 
L 194.62068 23.635662 
L 195.681702 24.259123 
L 196.742723 25.06332 
L 198.157418 27.142938 
L 198.864765 29.718938 
L 199.925787 33.801071 
L 200.809971 34.478257 
L 202.047829 35.484384 
L 204.877219 37.528513 
L 212.481205 42.102562 
L 218.316822 44.836555 
L 223.445091 46.983516 
L 228.750198 48.857238 
L 236.177347 51.132733 
L 243.604495 53.049625 
L 251.385318 54.820888 
L 261.641857 57.035723 
L 274.550949 59.493253 
L 283.923303 61.001178 
L 296.832396 62.798376 
L 311.86353 64.58072 
L 327.602012 66.176728 
L 348.999274 68.005914 
L 367.213473 69.315784 
L 390.379104 70.72264 
L 411.776366 71.798869 
L 430.344238 72.624053 
L 430.344238 72.624053 
" clip-path="url(#pb05fc99e4e)" style="fill: none; stroke: #1f77b4; stroke-width: 1.5; stroke-linecap: square"/>
   </g>
   <g id="line2d_32">
    <path d="M 76.670483 17.635333 
L 143.69166 17.745753 
L 157.661773 17.953674 
L 163.851064 18.253916 
L 176.052808 19.120413 
L 181.888425 19.792613 
L 186.839858 20.577 
L 190.907106 21.443735 
L 193.913333 22.297815 
L 196.035375 23.104518 
L 197.273233 23.749691 
L 198.334255 24.603692 
L 198.864765 25.254754 
L 199.572113 26.506957 
L 200.809971 28.915532 
L 201.870992 30.424419 
L 203.285687 31.995166 
L 204.877219 33.421818 
L 206.822425 34.877168 
L 209.651815 36.676423 
L 213.188552 38.663985 
L 217.078964 40.582036 
L 221.323049 42.417798 
L 226.981829 44.615749 
L 232.286935 46.425225 
L 238.653063 48.351541 
L 245.372864 50.149448 
L 252.97685 51.94644 
L 263.410226 54.171302 
L 274.550949 56.320255 
L 285.161162 58.15109 
L 296.478722 59.876127 
L 308.857303 61.538608 
L 322.827417 63.185257 
L 338.035388 64.752292 
L 355.365402 66.309141 
L 374.286948 67.780832 
L 395.330536 69.189509 
L 418.142494 70.486642 
L 430.344238 71.102555 
L 430.344238 71.102555 
" clip-path="url(#pb05fc99e4e)" style="fill: none; stroke: #008000; stroke-width: 1.5; stroke-linecap: square"/>
   </g>
   <g id="line2d_33">
    <path d="M 76.670483 120.27491 
L 131.906847 120.387356 
L 149.266847 120.608396 
L 157.157756 120.927548 
L 161.892301 121.377102 
L 166.626847 121.971664 
L 171.361392 122.661983 
L 176.095937 123.573734 
L 180.830483 124.781728 
L 183.986847 125.807805 
L 187.14321 127.074901 
L 190.299574 128.678987 
L 191.877756 129.666398 
L 193.455938 130.837449 
L 195.034119 132.285797 
L 196.612301 134.263286 
L 198.190483 138.495966 
L 199.768665 150.598013 
L 201.346847 154.349648 
L 202.925028 157.400837 
L 204.50321 160.030563 
L 206.081392 162.362622 
L 210.815937 168.609698 
L 213.972301 172.193714 
L 217.128665 175.318577 
L 221.86321 179.476512 
L 225.019574 181.938634 
L 226.597756 183.07077 
L 232.910483 186.689031 
L 236.066847 188.122701 
L 240.801392 190.00838 
L 250.270483 193.522597 
L 264.474119 199.228314 
L 272.365028 201.873133 
L 280.255937 204.110684 
L 286.568665 205.656226 
L 297.615937 208.026372 
L 307.085028 209.905802 
L 324.445028 212.905436 
L 335.492301 214.636113 
L 363.899574 218.633888 
L 393.885028 222.306924 
L 409.666847 223.976912 
L 419.135937 225.001178 
L 431.761392 226.341996 
L 431.761392 226.341996 
" clip-path="url(#pb05fc99e4e)" style="fill: none; stroke-dasharray: 5.55,2.4; stroke-dashoffset: 0; stroke: #d62728; stroke-width: 1.5"/>
   </g>
   <g id="patch_3">
    <path d="M 58.915938 279 
L 58.915938 7.2 
" style="fill: none; stroke: #000000; stroke-width: 0.8; stroke-linejoin: miter; stroke-linecap: square"/>
   </g>
   <g id="patch_4">
    <path d="M 449.515938 279 
L 449.515938 7.2 
" style="fill: none; stroke: #000000; stroke-width: 0.8; stroke-linejoin: miter; stroke-linecap: square"/>
   </g>
   <g id="patch_5">
    <path d="M 58.915938 279 
L 449.515938 279 
" style="fill: none; stroke: #000000; stroke-width: 0.8; stroke-linejoin: miter; stroke-linecap: square"/>
   </g>
   <g id="patch_6">
    <path d="M 58.915938 7.2 
L 449.515938 7.2 
" style="fill: none; stroke: #000000; stroke-width: 0.8; stroke-linejoin: miter; stroke-linecap: square"/>
   </g>
   <g id="legend_1">
    <g id="patch_7">
     <path d="M 68.715938 272 
L 138.295938 272 
Q 141.095938 272 141.095938 269.2 
L 141.095938 209.785313 
Q 141.095938 206.985313 138.295938 206.985313 
L 68.715938 206.985313 
Q 65.915938 206.985313 65.915938 209.785313 
L 65.915938 269.2 
Q 65.915938 272 68.715938 272 
z
" style="fill: #ffffff; opacity: 0.8; stroke: #cccccc; stroke-linejoin: miter"/>
    </g>
    <g id="line2d_34">
     <path d="M 71.515938 217.485313 
L 85.515938 217.485313 
L 99.515938 217.485313 
" style="fill: none; stroke: #1f77b4; stroke-width: 1.5; stroke-linecap: square"/>
    </g>
    <g id="text_18">
     <!-- $\mathit{T}_{г}$ -->
     <g transform="translate(110.715938 222.385313)scale(0.14 -0.14)">
      <defs>
       <path id="TimesNewRomanPSMT-433" d="M 2469 2863 
L 2584 2081 
L 2447 2081 
Q 2328 2469 2208 2564 
Q 2088 2659 1700 2659 
L 1094 2659 
L 1094 672 
Q 1094 341 1128 277 
Q 1163 213 1236 164 
Q 1309 116 1528 116 
L 1528 0 
L 97 0 
L 97 116 
Q 403 122 490 211 
Q 578 300 578 672 
L 578 2191 
Q 578 2494 543 2580 
Q 509 2666 423 2703 
Q 338 2741 97 2744 
L 97 2863 
L 2469 2863 
z
" transform="scale(0.015625)"/>
      </defs>
      <use xlink:href="#STIXGeneral-Italic-54" transform="translate(0 0.703125)"/>
      <use xlink:href="#TimesNewRomanPSMT-433" transform="translate(55.599991 -25.059375)scale(0.7)"/>
     </g>
    </g>
    <g id="line2d_35">
     <path d="M 71.515938 237.925313 
L 85.515938 237.925313 
L 99.515938 237.925313 
" style="fill: none; stroke: #008000; stroke-width: 1.5; stroke-linecap: square"/>
    </g>
    <g id="text_19">
     <!-- $\mathit{T_{s}}$ -->
     <g transform="translate(110.715938 242.825313)scale(0.14 -0.14)">
      <defs>
       <path id="STIXGeneral-Italic-73" d="M 2342 2829 
L 2214 1933 
L 2112 1933 
Q 2022 2675 1542 2675 
Q 1370 2675 1267 2579 
Q 1165 2483 1165 2310 
Q 1165 2067 1510 1658 
Q 1946 1152 1946 787 
Q 1946 397 1686 163 
Q 1427 -70 1024 -70 
Q 838 -70 672 -6 
Q 538 51 390 51 
Q 262 51 205 -83 
L 102 -83 
L 230 934 
L 333 934 
Q 461 64 973 64 
Q 1203 64 1331 192 
Q 1459 320 1459 557 
Q 1459 845 1101 1293 
Q 698 1798 698 2131 
Q 698 2451 909 2636 
Q 1120 2822 1472 2822 
Q 1600 2822 1830 2758 
Q 1971 2714 2061 2714 
Q 2189 2714 2253 2829 
L 2342 2829 
z
" transform="scale(0.015625)"/>
      </defs>
      <use xlink:href="#STIXGeneral-Italic-54" transform="translate(0 0.703125)"/>
      <use xlink:href="#STIXGeneral-Italic-73" transform="translate(55.599991 -12.525)scale(0.7)"/>
     </g>
    </g>
    <g id="line2d_36">
     <path d="M 71.515938 257.72 
L 85.515938 257.72 
L 99.515938 257.72 
" style="fill: none; stroke-dasharray: 5.55,2.4; stroke-dashoffset: 0; stroke: #d62728; stroke-width: 1.5"/>
    </g>
    <g id="text_20">
     <!-- $\mathit{T}_{data}$ -->
     <g transform="translate(110.715938 262.62)scale(0.14 -0.14)">
      <defs>
       <path id="TimesNewRomanPSMT-64" d="M 2222 322 
Q 2013 103 1813 7 
Q 1613 -88 1381 -88 
Q 913 -88 563 304 
Q 213 697 213 1313 
Q 213 1928 600 2439 
Q 988 2950 1597 2950 
Q 1975 2950 2222 2709 
L 2222 3238 
Q 2222 3728 2198 3840 
Q 2175 3953 2125 3993 
Q 2075 4034 2000 4034 
Q 1919 4034 1784 3984 
L 1744 4094 
L 2597 4444 
L 2738 4444 
L 2738 1134 
Q 2738 631 2761 520 
Q 2784 409 2836 365 
Q 2888 322 2956 322 
Q 3041 322 3181 375 
L 3216 266 
L 2366 -88 
L 2222 -88 
L 2222 322 
z
M 2222 541 
L 2222 2016 
Q 2203 2228 2109 2403 
Q 2016 2578 1861 2667 
Q 1706 2756 1559 2756 
Q 1284 2756 1069 2509 
Q 784 2184 784 1559 
Q 784 928 1059 592 
Q 1334 256 1672 256 
Q 1956 256 2222 541 
z
" transform="scale(0.015625)"/>
       <path id="TimesNewRomanPSMT-61" d="M 1822 413 
Q 1381 72 1269 19 
Q 1100 -59 909 -59 
Q 613 -59 420 144 
Q 228 347 228 678 
Q 228 888 322 1041 
Q 450 1253 767 1440 
Q 1084 1628 1822 1897 
L 1822 2009 
Q 1822 2438 1686 2597 
Q 1550 2756 1291 2756 
Q 1094 2756 978 2650 
Q 859 2544 859 2406 
L 866 2225 
Q 866 2081 792 2003 
Q 719 1925 600 1925 
Q 484 1925 411 2006 
Q 338 2088 338 2228 
Q 338 2497 613 2722 
Q 888 2947 1384 2947 
Q 1766 2947 2009 2819 
Q 2194 2722 2281 2516 
Q 2338 2381 2338 1966 
L 2338 994 
Q 2338 584 2353 492 
Q 2369 400 2405 369 
Q 2441 338 2488 338 
Q 2538 338 2575 359 
Q 2641 400 2828 588 
L 2828 413 
Q 2478 -56 2159 -56 
Q 2006 -56 1915 50 
Q 1825 156 1822 413 
z
M 1822 616 
L 1822 1706 
Q 1350 1519 1213 1441 
Q 966 1303 859 1153 
Q 753 1003 753 825 
Q 753 600 887 451 
Q 1022 303 1197 303 
Q 1434 303 1822 616 
z
" transform="scale(0.015625)"/>
       <path id="TimesNewRomanPSMT-74" d="M 1031 3803 
L 1031 2863 
L 1700 2863 
L 1700 2644 
L 1031 2644 
L 1031 788 
Q 1031 509 1111 412 
Q 1191 316 1316 316 
Q 1419 316 1516 380 
Q 1613 444 1666 569 
L 1788 569 
Q 1678 263 1478 108 
Q 1278 -47 1066 -47 
Q 922 -47 784 33 
Q 647 113 581 261 
Q 516 409 516 719 
L 516 2644 
L 63 2644 
L 63 2747 
Q 234 2816 414 2980 
Q 594 3144 734 3369 
Q 806 3488 934 3803 
L 1031 3803 
z
" transform="scale(0.015625)"/>
      </defs>
      <use xlink:href="#STIXGeneral-Italic-54" transform="translate(0 0.703125)"/>
      <use xlink:href="#TimesNewRomanPSMT-64" transform="translate(55.599991 -25.059375)scale(0.7)"/>
      <use xlink:href="#TimesNewRomanPSMT-61" transform="translate(90.599991 -25.059375)scale(0.7)"/>
      <use xlink:href="#TimesNewRomanPSMT-74" transform="translate(121.669327 -25.059375)scale(0.7)"/>
      <use xlink:href="#TimesNewRomanPSMT-61" transform="translate(141.117569 -25.059375)scale(0.7)"/>
     </g>
    </g>
   </g>
  </g>
 </g>
 <defs>
  <clipPath id="pb05fc99e4e">
   <rect x="58.915938" y="7.2" width="390.6" height="271.8"/>
  </clipPath>
 </defs>
</svg>
