<?xml version="1.0" encoding="utf-8" standalone="no"?>
<!DOCTYPE svg PUBLIC "-//W3C//DTD SVG 1.1//EN"
  "http://www.w3.org/Graphics/SVG/1.1/DTD/svg11.dtd">
<svg xmlns:xlink="http://www.w3.org/1999/xlink" width="456.715937pt" height="326.650362pt" viewBox="0 0 456.715937 326.650362" xmlns="http://www.w3.org/2000/svg" version="1.1">
 <metadata>
  <rdf:RDF xmlns:dc="http://purl.org/dc/elements/1.1/" xmlns:cc="http://creativecommons.org/ns#" xmlns:rdf="http://www.w3.org/1999/02/22-rdf-syntax-ns#">
   <cc:Work>
    <dc:type rdf:resource="http://purl.org/dc/dcmitype/StillImage"/>
    <dc:date>2022-12-18T22:11:22.539205</dc:date>
    <dc:format>image/svg+xml</dc:format>
    <dc:creator>
     <cc:Agent>
      <dc:title>Matplotlib v3.5.2, https://matplotlib.org/</dc:title>
     </cc:Agent>
    </dc:creator>
   </cc:Work>
  </rdf:RDF>
 </metadata>
 <defs>
  <style type="text/css">*{stroke-linejoin: round; stroke-linecap: butt}</style>
 </defs>
 <g id="figure_1">
  <g id="patch_1">
   <path d="M 0 326.650362 
L 456.715937 326.650362 
L 456.715937 0 
L 0 0 
L 0 326.650362 
z
" style="fill: none"/>
  </g>
  <g id="axes_1">
   <g id="patch_2">
    <path d="M 58.915938 283.018487 
L 449.515938 283.018487 
L 449.515938 11.218487 
L 58.915938 11.218487 
z
" style="fill: #ffffff"/>
   </g>
   <g id="matplotlib.axis_1">
    <g id="xtick_1">
     <g id="line2d_1">
      <path d="M 76.670483 283.018487 
L 76.670483 11.218487 
" clip-path="url(#pcb9aa5aad9)" style="fill: none; stroke: #b0b0b0; stroke-width: 0.8; stroke-linecap: square"/>
     </g>
     <g id="line2d_2">
      <defs>
       <path id="m7b0ab61550" d="M 0 0 
L 0 3.5 
" style="stroke: #000000; stroke-width: 0.8"/>
      </defs>
      <g>
       <use xlink:href="#m7b0ab61550" x="76.670483" y="283.018487" style="stroke: #000000; stroke-width: 0.8"/>
      </g>
     </g>
     <g id="text_1">
      <!-- 0.00 -->
      <g transform="translate(64.420483 299.739737)scale(0.14 -0.14)">
       <defs>
        <path id="TimesNewRomanPSMT-30" d="M 231 2094 
Q 231 2819 450 3342 
Q 669 3866 1031 4122 
Q 1313 4325 1613 4325 
Q 2100 4325 2488 3828 
Q 2972 3213 2972 2159 
Q 2972 1422 2759 906 
Q 2547 391 2217 158 
Q 1888 -75 1581 -75 
Q 975 -75 572 641 
Q 231 1244 231 2094 
z
M 844 2016 
Q 844 1141 1059 588 
Q 1238 122 1591 122 
Q 1759 122 1940 273 
Q 2122 425 2216 781 
Q 2359 1319 2359 2297 
Q 2359 3022 2209 3506 
Q 2097 3866 1919 4016 
Q 1791 4119 1609 4119 
Q 1397 4119 1231 3928 
Q 1006 3669 925 3112 
Q 844 2556 844 2016 
z
" transform="scale(0.015625)"/>
        <path id="TimesNewRomanPSMT-2e" d="M 800 606 
Q 947 606 1047 504 
Q 1147 403 1147 259 
Q 1147 116 1045 14 
Q 944 -88 800 -88 
Q 656 -88 554 14 
Q 453 116 453 259 
Q 453 406 554 506 
Q 656 606 800 606 
z
" transform="scale(0.015625)"/>
       </defs>
       <use xlink:href="#TimesNewRomanPSMT-30"/>
       <use xlink:href="#TimesNewRomanPSMT-2e" x="50"/>
       <use xlink:href="#TimesNewRomanPSMT-30" x="75"/>
       <use xlink:href="#TimesNewRomanPSMT-30" x="125"/>
      </g>
     </g>
    </g>
    <g id="xtick_2">
     <g id="line2d_3">
      <path d="M 125.004478 283.018487 
L 125.004478 11.218487 
" clip-path="url(#pcb9aa5aad9)" style="fill: none; stroke: #b0b0b0; stroke-width: 0.8; stroke-linecap: square"/>
     </g>
     <g id="line2d_4">
      <g>
       <use xlink:href="#m7b0ab61550" x="125.004478" y="283.018487" style="stroke: #000000; stroke-width: 0.8"/>
      </g>
     </g>
     <g id="text_2">
      <!-- 0.05 -->
      <g transform="translate(112.754478 299.739737)scale(0.14 -0.14)">
       <defs>
        <path id="TimesNewRomanPSMT-35" d="M 2778 4238 
L 2534 3706 
L 1259 3706 
L 981 3138 
Q 1809 3016 2294 2522 
Q 2709 2097 2709 1522 
Q 2709 1188 2573 903 
Q 2438 619 2231 419 
Q 2025 219 1772 97 
Q 1413 -75 1034 -75 
Q 653 -75 479 54 
Q 306 184 306 341 
Q 306 428 378 495 
Q 450 563 559 563 
Q 641 563 702 538 
Q 763 513 909 409 
Q 1144 247 1384 247 
Q 1750 247 2026 523 
Q 2303 800 2303 1197 
Q 2303 1581 2056 1914 
Q 1809 2247 1375 2428 
Q 1034 2569 447 2591 
L 1259 4238 
L 2778 4238 
z
" transform="scale(0.015625)"/>
       </defs>
       <use xlink:href="#TimesNewRomanPSMT-30"/>
       <use xlink:href="#TimesNewRomanPSMT-2e" x="50"/>
       <use xlink:href="#TimesNewRomanPSMT-30" x="75"/>
       <use xlink:href="#TimesNewRomanPSMT-35" x="125"/>
      </g>
     </g>
    </g>
    <g id="xtick_3">
     <g id="line2d_5">
      <path d="M 173.338474 283.018487 
L 173.338474 11.218487 
" clip-path="url(#pcb9aa5aad9)" style="fill: none; stroke: #b0b0b0; stroke-width: 0.8; stroke-linecap: square"/>
     </g>
     <g id="line2d_6">
      <g>
       <use xlink:href="#m7b0ab61550" x="173.338474" y="283.018487" style="stroke: #000000; stroke-width: 0.8"/>
      </g>
     </g>
     <g id="text_3">
      <!-- 0.10 -->
      <g transform="translate(161.088474 299.739737)scale(0.14 -0.14)">
       <defs>
        <path id="TimesNewRomanPSMT-31" d="M 750 3822 
L 1781 4325 
L 1884 4325 
L 1884 747 
Q 1884 391 1914 303 
Q 1944 216 2037 169 
Q 2131 122 2419 116 
L 2419 0 
L 825 0 
L 825 116 
Q 1125 122 1212 167 
Q 1300 213 1334 289 
Q 1369 366 1369 747 
L 1369 3034 
Q 1369 3497 1338 3628 
Q 1316 3728 1258 3775 
Q 1200 3822 1119 3822 
Q 1003 3822 797 3725 
L 750 3822 
z
" transform="scale(0.015625)"/>
       </defs>
       <use xlink:href="#TimesNewRomanPSMT-30"/>
       <use xlink:href="#TimesNewRomanPSMT-2e" x="50"/>
       <use xlink:href="#TimesNewRomanPSMT-31" x="75"/>
       <use xlink:href="#TimesNewRomanPSMT-30" x="125"/>
      </g>
     </g>
    </g>
    <g id="xtick_4">
     <g id="line2d_7">
      <path d="M 221.672469 283.018487 
L 221.672469 11.218487 
" clip-path="url(#pcb9aa5aad9)" style="fill: none; stroke: #b0b0b0; stroke-width: 0.8; stroke-linecap: square"/>
     </g>
     <g id="line2d_8">
      <g>
       <use xlink:href="#m7b0ab61550" x="221.672469" y="283.018487" style="stroke: #000000; stroke-width: 0.8"/>
      </g>
     </g>
     <g id="text_4">
      <!-- 0.15 -->
      <g transform="translate(209.422469 299.739737)scale(0.14 -0.14)">
       <use xlink:href="#TimesNewRomanPSMT-30"/>
       <use xlink:href="#TimesNewRomanPSMT-2e" x="50"/>
       <use xlink:href="#TimesNewRomanPSMT-31" x="75"/>
       <use xlink:href="#TimesNewRomanPSMT-35" x="125"/>
      </g>
     </g>
    </g>
    <g id="xtick_5">
     <g id="line2d_9">
      <path d="M 270.006464 283.018487 
L 270.006464 11.218487 
" clip-path="url(#pcb9aa5aad9)" style="fill: none; stroke: #b0b0b0; stroke-width: 0.8; stroke-linecap: square"/>
     </g>
     <g id="line2d_10">
      <g>
       <use xlink:href="#m7b0ab61550" x="270.006464" y="283.018487" style="stroke: #000000; stroke-width: 0.8"/>
      </g>
     </g>
     <g id="text_5">
      <!-- 0.20 -->
      <g transform="translate(257.756464 299.739737)scale(0.14 -0.14)">
       <defs>
        <path id="TimesNewRomanPSMT-32" d="M 2934 816 
L 2638 0 
L 138 0 
L 138 116 
Q 1241 1122 1691 1759 
Q 2141 2397 2141 2925 
Q 2141 3328 1894 3587 
Q 1647 3847 1303 3847 
Q 991 3847 742 3664 
Q 494 3481 375 3128 
L 259 3128 
Q 338 3706 661 4015 
Q 984 4325 1469 4325 
Q 1984 4325 2329 3994 
Q 2675 3663 2675 3213 
Q 2675 2891 2525 2569 
Q 2294 2063 1775 1497 
Q 997 647 803 472 
L 1909 472 
Q 2247 472 2383 497 
Q 2519 522 2628 598 
Q 2738 675 2819 816 
L 2934 816 
z
" transform="scale(0.015625)"/>
       </defs>
       <use xlink:href="#TimesNewRomanPSMT-30"/>
       <use xlink:href="#TimesNewRomanPSMT-2e" x="50"/>
       <use xlink:href="#TimesNewRomanPSMT-32" x="75"/>
       <use xlink:href="#TimesNewRomanPSMT-30" x="125"/>
      </g>
     </g>
    </g>
    <g id="xtick_6">
     <g id="line2d_11">
      <path d="M 318.34046 283.018487 
L 318.34046 11.218487 
" clip-path="url(#pcb9aa5aad9)" style="fill: none; stroke: #b0b0b0; stroke-width: 0.8; stroke-linecap: square"/>
     </g>
     <g id="line2d_12">
      <g>
       <use xlink:href="#m7b0ab61550" x="318.34046" y="283.018487" style="stroke: #000000; stroke-width: 0.8"/>
      </g>
     </g>
     <g id="text_6">
      <!-- 0.25 -->
      <g transform="translate(306.09046 299.739737)scale(0.14 -0.14)">
       <use xlink:href="#TimesNewRomanPSMT-30"/>
       <use xlink:href="#TimesNewRomanPSMT-2e" x="50"/>
       <use xlink:href="#TimesNewRomanPSMT-32" x="75"/>
       <use xlink:href="#TimesNewRomanPSMT-35" x="125"/>
      </g>
     </g>
    </g>
    <g id="xtick_7">
     <g id="line2d_13">
      <path d="M 366.674455 283.018487 
L 366.674455 11.218487 
" clip-path="url(#pcb9aa5aad9)" style="fill: none; stroke: #b0b0b0; stroke-width: 0.8; stroke-linecap: square"/>
     </g>
     <g id="line2d_14">
      <g>
       <use xlink:href="#m7b0ab61550" x="366.674455" y="283.018487" style="stroke: #000000; stroke-width: 0.8"/>
      </g>
     </g>
     <g id="text_7">
      <!-- 0.30 -->
      <g transform="translate(354.424455 299.739737)scale(0.14 -0.14)">
       <defs>
        <path id="TimesNewRomanPSMT-33" d="M 325 3431 
Q 506 3859 782 4092 
Q 1059 4325 1472 4325 
Q 1981 4325 2253 3994 
Q 2459 3747 2459 3466 
Q 2459 3003 1878 2509 
Q 2269 2356 2469 2072 
Q 2669 1788 2669 1403 
Q 2669 853 2319 450 
Q 1863 -75 997 -75 
Q 569 -75 414 31 
Q 259 138 259 259 
Q 259 350 332 419 
Q 406 488 509 488 
Q 588 488 669 463 
Q 722 447 909 348 
Q 1097 250 1169 231 
Q 1284 197 1416 197 
Q 1734 197 1970 444 
Q 2206 691 2206 1028 
Q 2206 1275 2097 1509 
Q 2016 1684 1919 1775 
Q 1784 1900 1550 2001 
Q 1316 2103 1072 2103 
L 972 2103 
L 972 2197 
Q 1219 2228 1467 2375 
Q 1716 2522 1828 2728 
Q 1941 2934 1941 3181 
Q 1941 3503 1739 3701 
Q 1538 3900 1238 3900 
Q 753 3900 428 3381 
L 325 3431 
z
" transform="scale(0.015625)"/>
       </defs>
       <use xlink:href="#TimesNewRomanPSMT-30"/>
       <use xlink:href="#TimesNewRomanPSMT-2e" x="50"/>
       <use xlink:href="#TimesNewRomanPSMT-33" x="75"/>
       <use xlink:href="#TimesNewRomanPSMT-30" x="125"/>
      </g>
     </g>
    </g>
    <g id="xtick_8">
     <g id="line2d_15">
      <path d="M 415.008451 283.018487 
L 415.008451 11.218487 
" clip-path="url(#pcb9aa5aad9)" style="fill: none; stroke: #b0b0b0; stroke-width: 0.8; stroke-linecap: square"/>
     </g>
     <g id="line2d_16">
      <g>
       <use xlink:href="#m7b0ab61550" x="415.008451" y="283.018487" style="stroke: #000000; stroke-width: 0.8"/>
      </g>
     </g>
     <g id="text_8">
      <!-- 0.35 -->
      <g transform="translate(402.758451 299.739737)scale(0.14 -0.14)">
       <use xlink:href="#TimesNewRomanPSMT-30"/>
       <use xlink:href="#TimesNewRomanPSMT-2e" x="50"/>
       <use xlink:href="#TimesNewRomanPSMT-33" x="75"/>
       <use xlink:href="#TimesNewRomanPSMT-35" x="125"/>
      </g>
     </g>
    </g>
    <g id="text_9">
     <!-- $\mathit{x}$, м -->
     <g transform="translate(243.155938 316.455674)scale(0.14 -0.14)">
      <defs>
       <path id="STIXGeneral-Italic-78" d="M 1555 2272 
L 1632 1907 
Q 1971 2426 2179 2624 
Q 2387 2822 2598 2822 
Q 2714 2822 2787 2755 
Q 2861 2688 2861 2585 
Q 2861 2483 2800 2419 
Q 2739 2355 2643 2355 
Q 2586 2355 2490 2409 
Q 2394 2464 2310 2464 
Q 2125 2464 1683 1690 
Q 1683 1606 1734 1402 
L 1939 544 
Q 2003 282 2131 282 
Q 2234 282 2432 538 
Q 2451 563 2476 598 
Q 2502 634 2521 662 
Q 2541 691 2566 717 
L 2662 659 
Q 2387 230 2227 80 
Q 2067 -70 1882 -70 
Q 1728 -70 1645 26 
Q 1562 122 1504 365 
L 1318 1126 
L 755 365 
Q 557 96 432 13 
Q 307 -70 147 -70 
Q 0 -70 -86 0 
Q -173 70 -173 198 
Q -173 294 -112 361 
Q -51 429 45 429 
Q 122 429 250 358 
Q 346 301 416 301 
Q 525 301 742 614 
L 1267 1357 
L 1088 2150 
Q 1024 2432 969 2509 
Q 915 2586 794 2586 
Q 717 2586 544 2541 
L 429 2509 
L 410 2611 
L 480 2637 
Q 992 2822 1229 2822 
Q 1350 2822 1420 2707 
Q 1491 2592 1555 2272 
z
" transform="scale(0.015625)"/>
       <path id="TimesNewRomanPSMT-2c" d="M 344 -1066 
L 344 -928 
Q 666 -822 842 -598 
Q 1019 -375 1019 -125 
Q 1019 -66 991 -25 
Q 969 3 947 3 
Q 913 3 797 -59 
Q 741 -88 678 -88 
Q 525 -88 434 3 
Q 344 94 344 253 
Q 344 406 461 515 
Q 578 625 747 625 
Q 953 625 1114 445 
Q 1275 266 1275 -31 
Q 1275 -353 1051 -629 
Q 828 -906 344 -1066 
z
" transform="scale(0.015625)"/>
       <path id="TimesNewRomanPSMT-20" transform="scale(0.015625)"/>
       <path id="TimesNewRomanPSMT-43c" d="M 2050 747 
L 2944 2863 
L 3909 2863 
L 3909 2744 
Q 3697 2744 3626 2701 
Q 3556 2659 3515 2596 
Q 3475 2534 3475 2191 
L 3475 672 
Q 3475 375 3504 289 
Q 3534 203 3626 159 
Q 3719 116 3909 116 
L 3909 0 
L 2525 0 
L 2525 116 
Q 2781 116 2868 211 
Q 2956 306 2956 672 
L 2956 2394 
L 1944 0 
L 1834 0 
L 803 2394 
L 803 672 
Q 803 375 834 289 
Q 866 203 956 159 
Q 1047 116 1238 116 
L 1238 0 
L 144 0 
L 144 116 
Q 422 116 500 217 
Q 578 319 578 672 
L 578 2191 
Q 578 2525 543 2586 
Q 509 2647 437 2695 
Q 366 2744 144 2744 
L 144 2863 
L 1150 2863 
L 2050 747 
z
" transform="scale(0.015625)"/>
      </defs>
      <use xlink:href="#STIXGeneral-Italic-78" transform="translate(0 0.265625)"/>
      <use xlink:href="#TimesNewRomanPSMT-2c" transform="translate(44.399994 0.265625)"/>
      <use xlink:href="#TimesNewRomanPSMT-20" transform="translate(69.399994 0.265625)"/>
      <use xlink:href="#TimesNewRomanPSMT-43c" transform="translate(94.399994 0.265625)"/>
     </g>
    </g>
   </g>
   <g id="matplotlib.axis_2">
    <g id="ytick_1">
     <g id="line2d_17">
      <path d="M 58.915938 275.689147 
L 449.515938 275.689147 
" clip-path="url(#pcb9aa5aad9)" style="fill: none; stroke: #b0b0b0; stroke-width: 0.8; stroke-linecap: square"/>
     </g>
     <g id="line2d_18">
      <defs>
       <path id="m62d04f4d00" d="M 0 0 
L -3.5 0 
" style="stroke: #000000; stroke-width: 0.8"/>
      </defs>
      <g>
       <use xlink:href="#m62d04f4d00" x="58.915938" y="275.689147" style="stroke: #000000; stroke-width: 0.8"/>
      </g>
     </g>
     <g id="text_10">
      <!-- 0 -->
      <g transform="translate(44.915938 280.549772)scale(0.14 -0.14)">
       <use xlink:href="#TimesNewRomanPSMT-30"/>
      </g>
     </g>
    </g>
    <g id="ytick_2">
     <g id="line2d_19">
      <path d="M 58.915938 242.735581 
L 449.515938 242.735581 
" clip-path="url(#pcb9aa5aad9)" style="fill: none; stroke: #b0b0b0; stroke-width: 0.8; stroke-linecap: square"/>
     </g>
     <g id="line2d_20">
      <g>
       <use xlink:href="#m62d04f4d00" x="58.915938" y="242.735581" style="stroke: #000000; stroke-width: 0.8"/>
      </g>
     </g>
     <g id="text_11">
      <!-- 250 -->
      <g transform="translate(30.915938 247.596206)scale(0.14 -0.14)">
       <use xlink:href="#TimesNewRomanPSMT-32"/>
       <use xlink:href="#TimesNewRomanPSMT-35" x="50"/>
       <use xlink:href="#TimesNewRomanPSMT-30" x="100"/>
      </g>
     </g>
    </g>
    <g id="ytick_3">
     <g id="line2d_21">
      <path d="M 58.915938 209.782016 
L 449.515938 209.782016 
" clip-path="url(#pcb9aa5aad9)" style="fill: none; stroke: #b0b0b0; stroke-width: 0.8; stroke-linecap: square"/>
     </g>
     <g id="line2d_22">
      <g>
       <use xlink:href="#m62d04f4d00" x="58.915938" y="209.782016" style="stroke: #000000; stroke-width: 0.8"/>
      </g>
     </g>
     <g id="text_12">
      <!-- 500 -->
      <g transform="translate(30.915938 214.642641)scale(0.14 -0.14)">
       <use xlink:href="#TimesNewRomanPSMT-35"/>
       <use xlink:href="#TimesNewRomanPSMT-30" x="50"/>
       <use xlink:href="#TimesNewRomanPSMT-30" x="100"/>
      </g>
     </g>
    </g>
    <g id="ytick_4">
     <g id="line2d_23">
      <path d="M 58.915938 176.828451 
L 449.515938 176.828451 
" clip-path="url(#pcb9aa5aad9)" style="fill: none; stroke: #b0b0b0; stroke-width: 0.8; stroke-linecap: square"/>
     </g>
     <g id="line2d_24">
      <g>
       <use xlink:href="#m62d04f4d00" x="58.915938" y="176.828451" style="stroke: #000000; stroke-width: 0.8"/>
      </g>
     </g>
     <g id="text_13">
      <!-- 750 -->
      <g transform="translate(30.915938 181.689076)scale(0.14 -0.14)">
       <defs>
        <path id="TimesNewRomanPSMT-37" d="M 644 4238 
L 2916 4238 
L 2916 4119 
L 1503 -88 
L 1153 -88 
L 2419 3728 
L 1253 3728 
Q 900 3728 750 3644 
Q 488 3500 328 3200 
L 238 3234 
L 644 4238 
z
" transform="scale(0.015625)"/>
       </defs>
       <use xlink:href="#TimesNewRomanPSMT-37"/>
       <use xlink:href="#TimesNewRomanPSMT-35" x="50"/>
       <use xlink:href="#TimesNewRomanPSMT-30" x="100"/>
      </g>
     </g>
    </g>
    <g id="ytick_5">
     <g id="line2d_25">
      <path d="M 58.915938 143.874886 
L 449.515938 143.874886 
" clip-path="url(#pcb9aa5aad9)" style="fill: none; stroke: #b0b0b0; stroke-width: 0.8; stroke-linecap: square"/>
     </g>
     <g id="line2d_26">
      <g>
       <use xlink:href="#m62d04f4d00" x="58.915938" y="143.874886" style="stroke: #000000; stroke-width: 0.8"/>
      </g>
     </g>
     <g id="text_14">
      <!-- 1000 -->
      <g transform="translate(23.915938 148.735511)scale(0.14 -0.14)">
       <use xlink:href="#TimesNewRomanPSMT-31"/>
       <use xlink:href="#TimesNewRomanPSMT-30" x="50"/>
       <use xlink:href="#TimesNewRomanPSMT-30" x="100"/>
       <use xlink:href="#TimesNewRomanPSMT-30" x="150"/>
      </g>
     </g>
    </g>
    <g id="ytick_6">
     <g id="line2d_27">
      <path d="M 58.915938 110.921321 
L 449.515938 110.921321 
" clip-path="url(#pcb9aa5aad9)" style="fill: none; stroke: #b0b0b0; stroke-width: 0.8; stroke-linecap: square"/>
     </g>
     <g id="line2d_28">
      <g>
       <use xlink:href="#m62d04f4d00" x="58.915938" y="110.921321" style="stroke: #000000; stroke-width: 0.8"/>
      </g>
     </g>
     <g id="text_15">
      <!-- 1250 -->
      <g transform="translate(23.915938 115.781946)scale(0.14 -0.14)">
       <use xlink:href="#TimesNewRomanPSMT-31"/>
       <use xlink:href="#TimesNewRomanPSMT-32" x="50"/>
       <use xlink:href="#TimesNewRomanPSMT-35" x="100"/>
       <use xlink:href="#TimesNewRomanPSMT-30" x="150"/>
      </g>
     </g>
    </g>
    <g id="ytick_7">
     <g id="line2d_29">
      <path d="M 58.915938 77.967755 
L 449.515938 77.967755 
" clip-path="url(#pcb9aa5aad9)" style="fill: none; stroke: #b0b0b0; stroke-width: 0.8; stroke-linecap: square"/>
     </g>
     <g id="line2d_30">
      <g>
       <use xlink:href="#m62d04f4d00" x="58.915938" y="77.967755" style="stroke: #000000; stroke-width: 0.8"/>
      </g>
     </g>
     <g id="text_16">
      <!-- 1500 -->
      <g transform="translate(23.915938 82.82838)scale(0.14 -0.14)">
       <use xlink:href="#TimesNewRomanPSMT-31"/>
       <use xlink:href="#TimesNewRomanPSMT-35" x="50"/>
       <use xlink:href="#TimesNewRomanPSMT-30" x="100"/>
       <use xlink:href="#TimesNewRomanPSMT-30" x="150"/>
      </g>
     </g>
    </g>
    <g id="ytick_8">
     <g id="line2d_31">
      <path d="M 58.915938 45.01419 
L 449.515938 45.01419 
" clip-path="url(#pcb9aa5aad9)" style="fill: none; stroke: #b0b0b0; stroke-width: 0.8; stroke-linecap: square"/>
     </g>
     <g id="line2d_32">
      <g>
       <use xlink:href="#m62d04f4d00" x="58.915938" y="45.01419" style="stroke: #000000; stroke-width: 0.8"/>
      </g>
     </g>
     <g id="text_17">
      <!-- 1750 -->
      <g transform="translate(23.915938 49.874815)scale(0.14 -0.14)">
       <use xlink:href="#TimesNewRomanPSMT-31"/>
       <use xlink:href="#TimesNewRomanPSMT-37" x="50"/>
       <use xlink:href="#TimesNewRomanPSMT-35" x="100"/>
       <use xlink:href="#TimesNewRomanPSMT-30" x="150"/>
      </g>
     </g>
    </g>
    <g id="ytick_9">
     <g id="line2d_33">
      <path d="M 58.915938 12.060625 
L 449.515938 12.060625 
" clip-path="url(#pcb9aa5aad9)" style="fill: none; stroke: #b0b0b0; stroke-width: 0.8; stroke-linecap: square"/>
     </g>
     <g id="line2d_34">
      <g>
       <use xlink:href="#m62d04f4d00" x="58.915938" y="12.060625" style="stroke: #000000; stroke-width: 0.8"/>
      </g>
     </g>
     <g id="text_18">
      <!-- 2000 -->
      <g transform="translate(23.915938 16.92125)scale(0.14 -0.14)">
       <use xlink:href="#TimesNewRomanPSMT-32"/>
       <use xlink:href="#TimesNewRomanPSMT-30" x="50"/>
       <use xlink:href="#TimesNewRomanPSMT-30" x="100"/>
       <use xlink:href="#TimesNewRomanPSMT-30" x="150"/>
      </g>
     </g>
    </g>
    <g id="text_19">
     <!-- $\mathit{V}$, м/с -->
     <g transform="translate(16.92125 164.408487)rotate(-90)scale(0.14 -0.14)">
      <defs>
       <path id="STIXGeneral-Italic-56" d="M 4403 4179 
L 4403 4077 
Q 4198 4070 4045 3821 
L 1658 -115 
L 1536 -115 
L 1011 3104 
Q 902 3776 828 3910 
Q 755 4045 486 4077 
L 486 4179 
L 2022 4179 
L 2022 4077 
Q 1722 4045 1629 3981 
Q 1536 3917 1536 3750 
Q 1536 3686 1542 3654 
L 1958 819 
L 3302 3123 
Q 3616 3661 3616 3859 
Q 3616 4032 3219 4077 
L 3219 4179 
L 4403 4179 
z
" transform="scale(0.015625)"/>
       <path id="TimesNewRomanPSMT-2f" d="M 1794 4444 
L 259 -88 
L 9 -88 
L 1544 4444 
L 1794 4444 
z
" transform="scale(0.015625)"/>
       <path id="TimesNewRomanPSMT-441" d="M 2631 1088 
Q 2516 522 2178 217 
Q 1841 -88 1431 -88 
Q 944 -88 581 321 
Q 219 731 219 1428 
Q 219 2103 620 2525 
Q 1022 2947 1584 2947 
Q 2006 2947 2278 2723 
Q 2550 2500 2550 2259 
Q 2550 2141 2473 2067 
Q 2397 1994 2259 1994 
Q 2075 1994 1981 2113 
Q 1928 2178 1911 2362 
Q 1894 2547 1784 2644 
Q 1675 2738 1481 2738 
Q 1169 2738 978 2506 
Q 725 2200 725 1697 
Q 725 1184 976 792 
Q 1228 400 1656 400 
Q 1963 400 2206 609 
Q 2378 753 2541 1131 
L 2631 1088 
z
" transform="scale(0.015625)"/>
      </defs>
      <use xlink:href="#STIXGeneral-Italic-56" transform="translate(0 0.5625)"/>
      <use xlink:href="#TimesNewRomanPSMT-2c" transform="translate(61.099991 0.5625)"/>
      <use xlink:href="#TimesNewRomanPSMT-20" transform="translate(86.099991 0.5625)"/>
      <use xlink:href="#TimesNewRomanPSMT-43c" transform="translate(111.099991 0.5625)"/>
      <use xlink:href="#TimesNewRomanPSMT-2f" transform="translate(174.381241 0.5625)"/>
      <use xlink:href="#TimesNewRomanPSMT-441" transform="translate(202.164444 0.5625)"/>
     </g>
    </g>
   </g>
   <g id="line2d_35">
    <path d="M 76.670483 270.662936 
L 83.814693 270.524758 
L 106.944956 269.450759 
L 117.342965 268.660172 
L 124.345705 267.933909 
L 131.41918 266.956584 
L 136.087674 266.11681 
L 140.119555 265.216448 
L 144.788048 263.886097 
L 148.961399 262.318154 
L 150.941972 261.406129 
L 154.620179 259.250606 
L 157.095895 257.413669 
L 157.944712 256.616571 
L 159.500876 255.046037 
L 160.915571 253.361306 
L 164.098635 249.310975 
L 166.574352 246.989755 
L 168.767129 244.684625 
L 172.65754 240.27253 
L 174.779583 237.668129 
L 179.518811 231.277365 
L 183.762896 224.75054 
L 185.531265 221.756264 
L 187.936246 217.267464 
L 190.199758 212.646043 
L 191.11931 210.513103 
L 192.746209 206.47337 
L 194.019435 202.869795 
L 195.43413 198.128799 
L 196.707355 192.620414 
L 198.334255 177.752366 
L 199.890419 150.064891 
L 200.597767 148.232568 
L 202.083197 144.148216 
L 203.993035 139.732847 
L 205.124791 137.418553 
L 210.783571 127.116462 
L 212.55194 124.358881 
L 217.220433 118.172525 
L 221.464518 113.403537 
L 223.515826 111.126638 
L 227.123298 107.766843 
L 230.942975 104.648031 
L 234.762651 101.75719 
L 239.855554 98.324662 
L 243.321556 96.316175 
L 248.272989 93.662907 
L 250.324297 92.57294 
L 265.744472 85.088353 
L 272.817948 82.068498 
L 278.759667 79.861725 
L 286.045346 77.460082 
L 294.533516 74.949998 
L 305.285198 72.206246 
L 312.429408 70.582338 
L 321.624926 68.674008 
L 332.871751 66.609752 
L 345.391802 64.568556 
L 359.680222 62.548337 
L 373.473498 60.852971 
L 391.935268 58.897329 
L 405.587075 57.680348 
L 427.727052 55.945632 
L 430.344238 55.758397 
L 430.344238 55.758397 
" clip-path="url(#pcb9aa5aad9)" style="fill: none; stroke: #ff1493; stroke-width: 2; stroke-linecap: square"/>
   </g>
   <g id="line2d_36">
    <path d="M 76.670483 270.663941 
L 85.653796 270.552341 
L 99.659277 270.017359 
L 111.754919 269.346936 
L 121.233376 268.607033 
L 128.943464 267.787255 
L 135.168122 266.909899 
L 140.261024 265.982349 
L 144.717313 264.948638 
L 148.39552 263.875437 
L 151.649319 262.695682 
L 154.478709 261.429406 
L 156.954425 260.066027 
L 159.005733 258.700925 
L 160.915571 257.162172 
L 162.82541 255.301128 
L 165.725534 252.379239 
L 174.425909 244.158917 
L 177.891912 240.485688 
L 181.28718 236.575931 
L 184.540978 232.489736 
L 187.582573 228.306534 
L 190.341228 224.125945 
L 192.60474 220.321567 
L 194.656048 216.440594 
L 196.212212 213.053629 
L 197.273233 210.284536 
L 198.26352 206.884587 
L 198.829398 204.284244 
L 199.60748 199.564861 
L 200.880706 191.629787 
L 202.083197 185.776054 
L 203.427157 180.425467 
L 204.912587 175.481229 
L 206.468751 171.059232 
L 208.23712 166.707261 
L 210.288428 162.26319 
L 212.481205 158.038821 
L 214.744717 154.144903 
L 217.220433 150.327017 
L 219.837619 146.701173 
L 222.808479 142.978159 
L 225.991542 139.346189 
L 229.245341 135.982277 
L 232.711344 132.725768 
L 236.460286 129.512848 
L 240.421432 126.409533 
L 244.594782 123.425207 
L 249.121806 120.467138 
L 254.143973 117.464957 
L 259.661284 114.430129 
L 265.603003 111.413952 
L 272.039865 108.401895 
L 278.759667 105.503007 
L 285.762407 102.727363 
L 293.189556 100.026485 
L 301.111848 97.382907 
L 309.600018 94.787346 
L 318.795536 92.213539 
L 328.556931 89.714859 
L 339.096409 87.250832 
L 350.484704 84.821714 
L 362.651081 82.457004 
L 375.73701 80.142873 
L 389.813226 77.880996 
L 404.879728 75.687853 
L 421.219455 73.53847 
L 430.344238 72.427931 
L 430.344238 72.427931 
" clip-path="url(#pcb9aa5aad9)" style="fill: none; stroke: #ffc0cb; stroke-width: 2; stroke-linecap: square"/>
   </g>
   <g id="line2d_37">
    <path d="M 76.670483 270.662936 
L 81.405028 270.587409 
L 89.295938 270.14213 
L 100.34321 269.363463 
L 109.812301 268.497928 
L 117.70321 267.572024 
L 124.015938 266.639444 
L 130.328665 265.463993 
L 135.06321 264.359522 
L 139.797756 262.986242 
L 142.954119 261.868332 
L 146.110483 260.533149 
L 149.266847 258.909913 
L 152.42321 256.892972 
L 154.001392 255.688605 
L 155.579574 254.316941 
L 157.157756 252.739878 
L 158.735937 250.906537 
L 160.314119 248.747268 
L 161.892301 246.163833 
L 163.470483 243.309343 
L 166.626847 239.253684 
L 169.78321 234.904154 
L 172.939574 230.218368 
L 176.095937 225.159784 
L 179.252301 219.669193 
L 182.408665 213.669368 
L 185.565028 207.053722 
L 188.721392 199.615485 
L 190.299574 195.480127 
L 191.877756 190.956197 
L 193.455938 185.894285 
L 195.034119 180.015039 
L 196.612301 172.539098 
L 198.190483 158.098167 
L 199.768665 125.070932 
L 201.346847 116.646207 
L 202.925028 110.136246 
L 204.50321 104.767287 
L 206.081392 100.204165 
L 209.237756 92.231644 
L 210.815937 88.56396 
L 212.394119 85.322921 
L 213.972301 82.345138 
L 215.550483 79.61922 
L 218.706847 74.868282 
L 223.441392 68.726823 
L 225.019574 66.890784 
L 226.597756 65.616004 
L 228.175937 64.092617 
L 231.332301 61.435066 
L 232.910483 60.585154 
L 236.066847 58.506268 
L 239.22321 56.656514 
L 242.379574 55.063242 
L 248.692301 52.337258 
L 250.270483 51.272489 
L 251.848665 50.497043 
L 255.005028 48.669988 
L 264.474119 44.008494 
L 270.786847 41.520382 
L 275.521392 39.85983 
L 280.255937 38.40704 
L 286.568665 36.728204 
L 297.615937 34.161741 
L 305.506847 32.777605 
L 319.710483 30.627712 
L 329.179574 29.586782 
L 349.695938 27.679669 
L 363.899574 26.769621 
L 374.946847 26.108479 
L 378.10321 25.851993 
L 393.885028 25.128857 
L 431.761392 23.573032 
L 431.761392 23.573032 
" clip-path="url(#pcb9aa5aad9)" style="fill: none; stroke-dasharray: 7.4,3.2; stroke-dashoffset: 0; stroke: #000000; stroke-width: 2"/>
   </g>
   <g id="patch_3">
    <path d="M 58.915938 283.018487 
L 58.915938 11.218487 
" style="fill: none; stroke: #000000; stroke-width: 0.8; stroke-linejoin: miter; stroke-linecap: square"/>
   </g>
   <g id="patch_4">
    <path d="M 449.515938 283.018487 
L 449.515938 11.218487 
" style="fill: none; stroke: #000000; stroke-width: 0.8; stroke-linejoin: miter; stroke-linecap: square"/>
   </g>
   <g id="patch_5">
    <path d="M 58.915938 283.018487 
L 449.515938 283.018487 
" style="fill: none; stroke: #000000; stroke-width: 0.8; stroke-linejoin: miter; stroke-linecap: square"/>
   </g>
   <g id="patch_6">
    <path d="M 58.915938 11.218487 
L 449.515938 11.218487 
" style="fill: none; stroke: #000000; stroke-width: 0.8; stroke-linejoin: miter; stroke-linecap: square"/>
   </g>
   <g id="legend_1">
    <g id="patch_7">
     <path d="M 68.715938 83.233174 
L 138.995938 83.233174 
Q 141.795938 83.233174 141.795938 80.433174 
L 141.795938 21.018487 
Q 141.795938 18.218487 138.995938 18.218487 
L 68.715938 18.218487 
Q 65.915938 18.218487 65.915938 21.018487 
L 65.915938 80.433174 
Q 65.915938 83.233174 68.715938 83.233174 
z
" style="fill: #ffffff; opacity: 0.8; stroke: #cccccc; stroke-linejoin: miter"/>
    </g>
    <g id="line2d_38">
     <path d="M 71.515938 28.718487 
L 85.515938 28.718487 
L 99.515938 28.718487 
" style="fill: none; stroke: #ff1493; stroke-width: 2; stroke-linecap: square"/>
    </g>
    <g id="text_20">
     <!-- $\mathit{V}_{г}$ -->
     <g transform="translate(110.715938 33.618487)scale(0.14 -0.14)">
      <defs>
       <path id="TimesNewRomanPSMT-433" d="M 2469 2863 
L 2584 2081 
L 2447 2081 
Q 2328 2469 2208 2564 
Q 2088 2659 1700 2659 
L 1094 2659 
L 1094 672 
Q 1094 341 1128 277 
Q 1163 213 1236 164 
Q 1309 116 1528 116 
L 1528 0 
L 97 0 
L 97 116 
Q 403 122 490 211 
Q 578 300 578 672 
L 578 2191 
Q 578 2494 543 2580 
Q 509 2666 423 2703 
Q 338 2741 97 2744 
L 97 2863 
L 2469 2863 
z
" transform="scale(0.015625)"/>
      </defs>
      <use xlink:href="#STIXGeneral-Italic-56" transform="translate(0 0.703125)"/>
      <use xlink:href="#TimesNewRomanPSMT-433" transform="translate(61.099991 -25.059375)scale(0.7)"/>
     </g>
    </g>
    <g id="line2d_39">
     <path d="M 71.515938 49.158487 
L 85.515938 49.158487 
L 99.515938 49.158487 
" style="fill: none; stroke: #ffc0cb; stroke-width: 2; stroke-linecap: square"/>
    </g>
    <g id="text_21">
     <!-- $\mathit{V_{s}}$ -->
     <g transform="translate(110.715938 54.058487)scale(0.14 -0.14)">
      <defs>
       <path id="STIXGeneral-Italic-73" d="M 2342 2829 
L 2214 1933 
L 2112 1933 
Q 2022 2675 1542 2675 
Q 1370 2675 1267 2579 
Q 1165 2483 1165 2310 
Q 1165 2067 1510 1658 
Q 1946 1152 1946 787 
Q 1946 397 1686 163 
Q 1427 -70 1024 -70 
Q 838 -70 672 -6 
Q 538 51 390 51 
Q 262 51 205 -83 
L 102 -83 
L 230 934 
L 333 934 
Q 461 64 973 64 
Q 1203 64 1331 192 
Q 1459 320 1459 557 
Q 1459 845 1101 1293 
Q 698 1798 698 2131 
Q 698 2451 909 2636 
Q 1120 2822 1472 2822 
Q 1600 2822 1830 2758 
Q 1971 2714 2061 2714 
Q 2189 2714 2253 2829 
L 2342 2829 
z
" transform="scale(0.015625)"/>
      </defs>
      <use xlink:href="#STIXGeneral-Italic-56" transform="translate(0 0.703125)"/>
      <use xlink:href="#STIXGeneral-Italic-73" transform="translate(61.099991 -12.525)scale(0.7)"/>
     </g>
    </g>
    <g id="line2d_40">
     <path d="M 71.515938 68.953174 
L 85.515938 68.953174 
L 99.515938 68.953174 
" style="fill: none; stroke-dasharray: 7.4,3.2; stroke-dashoffset: 0; stroke: #000000; stroke-width: 2"/>
    </g>
    <g id="text_22">
     <!-- $\mathit{V}_{data}$ -->
     <g transform="translate(110.715938 73.853174)scale(0.14 -0.14)">
      <defs>
       <path id="TimesNewRomanPSMT-64" d="M 2222 322 
Q 2013 103 1813 7 
Q 1613 -88 1381 -88 
Q 913 -88 563 304 
Q 213 697 213 1313 
Q 213 1928 600 2439 
Q 988 2950 1597 2950 
Q 1975 2950 2222 2709 
L 2222 3238 
Q 2222 3728 2198 3840 
Q 2175 3953 2125 3993 
Q 2075 4034 2000 4034 
Q 1919 4034 1784 3984 
L 1744 4094 
L 2597 4444 
L 2738 4444 
L 2738 1134 
Q 2738 631 2761 520 
Q 2784 409 2836 365 
Q 2888 322 2956 322 
Q 3041 322 3181 375 
L 3216 266 
L 2366 -88 
L 2222 -88 
L 2222 322 
z
M 2222 541 
L 2222 2016 
Q 2203 2228 2109 2403 
Q 2016 2578 1861 2667 
Q 1706 2756 1559 2756 
Q 1284 2756 1069 2509 
Q 784 2184 784 1559 
Q 784 928 1059 592 
Q 1334 256 1672 256 
Q 1956 256 2222 541 
z
" transform="scale(0.015625)"/>
       <path id="TimesNewRomanPSMT-61" d="M 1822 413 
Q 1381 72 1269 19 
Q 1100 -59 909 -59 
Q 613 -59 420 144 
Q 228 347 228 678 
Q 228 888 322 1041 
Q 450 1253 767 1440 
Q 1084 1628 1822 1897 
L 1822 2009 
Q 1822 2438 1686 2597 
Q 1550 2756 1291 2756 
Q 1094 2756 978 2650 
Q 859 2544 859 2406 
L 866 2225 
Q 866 2081 792 2003 
Q 719 1925 600 1925 
Q 484 1925 411 2006 
Q 338 2088 338 2228 
Q 338 2497 613 2722 
Q 888 2947 1384 2947 
Q 1766 2947 2009 2819 
Q 2194 2722 2281 2516 
Q 2338 2381 2338 1966 
L 2338 994 
Q 2338 584 2353 492 
Q 2369 400 2405 369 
Q 2441 338 2488 338 
Q 2538 338 2575 359 
Q 2641 400 2828 588 
L 2828 413 
Q 2478 -56 2159 -56 
Q 2006 -56 1915 50 
Q 1825 156 1822 413 
z
M 1822 616 
L 1822 1706 
Q 1350 1519 1213 1441 
Q 966 1303 859 1153 
Q 753 1003 753 825 
Q 753 600 887 451 
Q 1022 303 1197 303 
Q 1434 303 1822 616 
z
" transform="scale(0.015625)"/>
       <path id="TimesNewRomanPSMT-74" d="M 1031 3803 
L 1031 2863 
L 1700 2863 
L 1700 2644 
L 1031 2644 
L 1031 788 
Q 1031 509 1111 412 
Q 1191 316 1316 316 
Q 1419 316 1516 380 
Q 1613 444 1666 569 
L 1788 569 
Q 1678 263 1478 108 
Q 1278 -47 1066 -47 
Q 922 -47 784 33 
Q 647 113 581 261 
Q 516 409 516 719 
L 516 2644 
L 63 2644 
L 63 2747 
Q 234 2816 414 2980 
Q 594 3144 734 3369 
Q 806 3488 934 3803 
L 1031 3803 
z
" transform="scale(0.015625)"/>
      </defs>
      <use xlink:href="#STIXGeneral-Italic-56" transform="translate(0 0.703125)"/>
      <use xlink:href="#TimesNewRomanPSMT-64" transform="translate(61.099991 -25.059375)scale(0.7)"/>
      <use xlink:href="#TimesNewRomanPSMT-61" transform="translate(96.099991 -25.059375)scale(0.7)"/>
      <use xlink:href="#TimesNewRomanPSMT-74" transform="translate(127.169327 -25.059375)scale(0.7)"/>
      <use xlink:href="#TimesNewRomanPSMT-61" transform="translate(146.617569 -25.059375)scale(0.7)"/>
     </g>
    </g>
   </g>
  </g>
 </g>
 <defs>
  <clipPath id="pcb9aa5aad9">
   <rect x="58.915938" y="11.218487" width="390.6" height="271.8"/>
  </clipPath>
 </defs>
</svg>
