<?xml version="1.0" encoding="utf-8" standalone="no"?>
<!DOCTYPE svg PUBLIC "-//W3C//DTD SVG 1.1//EN"
  "http://www.w3.org/Graphics/SVG/1.1/DTD/svg11.dtd">
<svg xmlns:xlink="http://www.w3.org/1999/xlink" width="399.034687pt" height="314.14pt" viewBox="0 0 399.034687 314.14" xmlns="http://www.w3.org/2000/svg" version="1.1">
 <metadata>
  <rdf:RDF xmlns:dc="http://purl.org/dc/elements/1.1/" xmlns:cc="http://creativecommons.org/ns#" xmlns:rdf="http://www.w3.org/1999/02/22-rdf-syntax-ns#">
   <cc:Work>
    <dc:type rdf:resource="http://purl.org/dc/dcmitype/StillImage"/>
    <dc:date>2022-12-17T01:11:06.808773</dc:date>
    <dc:format>image/svg+xml</dc:format>
    <dc:creator>
     <cc:Agent>
      <dc:title>Matplotlib v3.6.2, https://matplotlib.org/</dc:title>
     </cc:Agent>
    </dc:creator>
   </cc:Work>
  </rdf:RDF>
 </metadata>
 <defs>
  <style type="text/css">*{stroke-linejoin: round; stroke-linecap: butt}</style>
 </defs>
 <g id="figure_1">
  <g id="patch_1">
   <path d="M 0 314.14 
L 399.034687 314.14 
L 399.034687 0 
L 0 0 
z
" style="fill: #ffffff"/>
  </g>
  <g id="axes_1">
   <g id="patch_2">
    <path d="M 57.034688 284.4 
L 391.834688 284.4 
L 391.834688 7.2 
L 57.034688 7.2 
z
" style="fill: #ffffff"/>
   </g>
   <g id="matplotlib.axis_1">
    <g id="xtick_1">
     <g id="line2d_1">
      <path d="M 86.08758 284.4 
L 86.08758 7.2 
" clip-path="url(#p3e3349bc3e)" style="fill: none; stroke: #b0b0b0; stroke-width: 0.8; stroke-linecap: square"/>
     </g>
     <g id="line2d_2">
      <defs>
       <path id="m8664658845" d="M 0 0 
L 0 3.5 
" style="stroke: #000000; stroke-width: 0.8"/>
      </defs>
      <g>
       <use xlink:href="#m8664658845" x="86.08758" y="284.4" style="stroke: #000000; stroke-width: 0.8"/>
      </g>
     </g>
     <g id="text_1">
      <!-- $\mathit{dF}_{кр}$/$\mathit{F}_{кр}$ -->
      <g transform="translate(61.79758 301.2) scale(0.14 -0.14)">
       <defs>
        <path id="STIXGeneral-Italic-64" d="M 3334 4371 
L 3373 4333 
L 3123 3360 
L 2739 1958 
Q 2323 429 2323 384 
Q 2323 256 2438 256 
Q 2522 256 2614 336 
Q 2707 416 2963 710 
L 3040 646 
Q 2547 -83 2099 -83 
Q 1978 -83 1907 -6 
Q 1837 70 1837 205 
Q 1837 397 1920 774 
Q 1645 307 1379 118 
Q 1114 -70 781 -70 
Q 461 -70 278 125 
Q 96 320 96 678 
Q 96 1440 713 2131 
Q 1331 2822 1965 2822 
Q 2163 2822 2256 2732 
Q 2349 2643 2381 2451 
L 2387 2451 
L 2675 3494 
Q 2765 3808 2765 3949 
Q 2765 4051 2694 4076 
Q 2624 4102 2355 4115 
L 2355 4224 
Q 2848 4269 3334 4371 
z
M 2278 2310 
Q 2278 2477 2185 2576 
Q 2093 2675 1978 2675 
Q 1677 2675 1395 2381 
Q 1075 2042 864 1571 
Q 653 1101 653 704 
Q 653 486 752 361 
Q 851 237 1024 237 
Q 1312 237 1606 550 
Q 1901 864 2089 1350 
Q 2278 1837 2278 2310 
z
" transform="scale(0.015625)"/>
        <path id="STIXGeneral-Italic-46" d="M 4128 4179 
L 3923 3194 
L 3789 3206 
Q 3808 3347 3808 3418 
Q 3808 3667 3718 3772 
Q 3629 3878 3373 3923 
Q 3117 3968 2534 3968 
Q 2310 3968 2220 3926 
Q 2131 3885 2099 3763 
L 1690 2310 
Q 2003 2317 2147 2317 
Q 2291 2317 2457 2345 
Q 2624 2374 2678 2396 
Q 2733 2419 2822 2505 
Q 2912 2592 2950 2665 
Q 2989 2739 3072 2912 
L 3187 2880 
L 2701 1376 
L 2592 1408 
Q 2643 1670 2643 1798 
Q 2643 1978 2531 2029 
Q 2419 2080 2163 2080 
Q 1984 2080 1632 2099 
L 1254 736 
Q 1165 416 1165 352 
Q 1165 237 1273 179 
Q 1382 122 1658 102 
L 1658 0 
L 51 0 
L 51 102 
Q 314 122 410 224 
Q 506 326 582 602 
L 1370 3430 
Q 1434 3661 1434 3821 
Q 1434 3955 1347 4003 
Q 1261 4051 947 4077 
L 947 4179 
L 4128 4179 
z
" transform="scale(0.015625)"/>
        <path id="TimesNewRomanPSMT-43a" d="M 3072 0 
L 2228 0 
Q 1834 572 1516 1172 
Q 1441 1309 1380 1376 
Q 1319 1444 1213 1444 
Q 1175 1444 1094 1438 
L 1094 672 
Q 1094 363 1130 277 
Q 1166 191 1259 153 
Q 1353 116 1575 116 
L 1575 0 
L 144 0 
L 144 116 
Q 422 116 500 217 
Q 578 319 578 672 
L 578 2191 
Q 578 2525 543 2586 
Q 509 2647 437 2695 
Q 366 2744 144 2744 
L 144 2863 
L 1575 2863 
L 1575 2744 
Q 1316 2744 1255 2706 
Q 1194 2669 1144 2614 
Q 1094 2559 1094 2191 
L 1094 1628 
Q 1166 1622 1191 1622 
Q 1381 1622 1548 1730 
Q 1716 1838 1847 2188 
Q 1969 2519 2048 2634 
Q 2128 2750 2270 2823 
Q 2413 2897 2569 2897 
Q 2738 2897 2838 2815 
Q 2938 2734 2938 2603 
Q 2938 2494 2866 2417 
Q 2794 2341 2666 2341 
Q 2597 2341 2494 2378 
Q 2363 2425 2294 2425 
Q 2150 2425 2056 2178 
Q 1950 1894 1900 1811 
Q 1850 1728 1709 1591 
Q 1806 1563 1920 1447 
Q 2034 1331 2344 788 
Q 2591 353 2714 237 
Q 2838 122 3072 116 
L 3072 0 
z
" transform="scale(0.015625)"/>
        <path id="TimesNewRomanPSMT-440" d="M -6 2578 
L 875 2934 
L 994 2934 
L 994 2266 
Q 1216 2644 1439 2795 
Q 1663 2947 1909 2947 
Q 2341 2947 2628 2609 
Q 2981 2197 2981 1534 
Q 2981 794 2556 309 
Q 2206 -88 1675 -88 
Q 1444 -88 1275 -22 
Q 1150 25 994 166 
L 994 -706 
Q 994 -1000 1030 -1079 
Q 1066 -1159 1155 -1206 
Q 1244 -1253 1478 -1253 
L 1478 -1369 
L -22 -1369 
L -22 -1253 
L 56 -1253 
Q 228 -1256 350 -1188 
Q 409 -1153 442 -1076 
Q 475 -1000 475 -688 
L 475 2019 
Q 475 2297 450 2372 
Q 425 2447 370 2484 
Q 316 2522 222 2522 
Q 147 2522 31 2478 
L -6 2578 
z
M 994 2081 
L 994 1013 
Q 994 666 1022 556 
Q 1066 375 1236 237 
Q 1406 100 1666 100 
Q 1978 100 2172 344 
Q 2425 663 2425 1241 
Q 2425 1897 2138 2250 
Q 1938 2494 1663 2494 
Q 1513 2494 1366 2419 
Q 1253 2363 994 2081 
z
" transform="scale(0.015625)"/>
        <path id="TimesNewRomanPSMT-2f" d="M 1794 4444 
L 259 -88 
L 9 -88 
L 1544 4444 
L 1794 4444 
z
" transform="scale(0.015625)"/>
       </defs>
       <use xlink:href="#STIXGeneral-Italic-64" transform="translate(0 0.5625)"/>
       <use xlink:href="#STIXGeneral-Italic-46" transform="translate(49.999985 0.5625)"/>
       <use xlink:href="#TimesNewRomanPSMT-43a" transform="translate(111.099976 -25.2) scale(0.7)"/>
       <use xlink:href="#TimesNewRomanPSMT-440" transform="translate(145.108765 -25.2) scale(0.7)"/>
       <use xlink:href="#TimesNewRomanPSMT-2f" transform="translate(184.402515 0.5625)"/>
       <use xlink:href="#STIXGeneral-Italic-46" transform="translate(212.185718 0.5625)"/>
       <use xlink:href="#TimesNewRomanPSMT-43a" transform="translate(273.285709 -25.2) scale(0.7)"/>
       <use xlink:href="#TimesNewRomanPSMT-440" transform="translate(307.294498 -25.2) scale(0.7)"/>
      </g>
     </g>
    </g>
    <g id="xtick_2">
     <g id="line2d_3">
      <path d="M 155.261134 284.4 
L 155.261134 7.2 
" clip-path="url(#p3e3349bc3e)" style="fill: none; stroke: #b0b0b0; stroke-width: 0.8; stroke-linecap: square"/>
     </g>
     <g id="line2d_4">
      <g>
       <use xlink:href="#m8664658845" x="155.261134" y="284.4" style="stroke: #000000; stroke-width: 0.8"/>
      </g>
     </g>
     <g id="text_2">
      <!-- $\mathit{dF_a}$/$\mathit{F_a}$ -->
      <g transform="translate(135.731134 301.12125) scale(0.14 -0.14)">
       <defs>
        <path id="STIXGeneral-Italic-61" d="M 2963 710 
L 3046 640 
Q 2688 205 2518 70 
Q 2349 -64 2157 -64 
Q 1901 -64 1901 198 
Q 1901 358 2048 934 
Q 1690 397 1389 163 
Q 1088 -70 749 -70 
Q 467 -70 288 125 
Q 109 320 109 672 
Q 109 1158 387 1664 
Q 666 2170 1094 2496 
Q 1523 2822 1939 2822 
Q 2368 2822 2451 2451 
L 2522 2758 
L 2541 2778 
L 2931 2822 
L 2976 2803 
Q 2970 2778 2938 2669 
Q 2368 595 2368 346 
Q 2368 262 2458 262 
Q 2554 262 2790 525 
L 2963 710 
z
M 2336 2310 
Q 2336 2477 2240 2579 
Q 2144 2682 1978 2682 
Q 1542 2682 1139 2093 
Q 928 1779 787 1395 
Q 646 1011 646 717 
Q 646 243 1030 243 
Q 1408 243 1843 870 
Q 2336 1581 2336 2310 
z
" transform="scale(0.015625)"/>
       </defs>
       <use xlink:href="#STIXGeneral-Italic-64" transform="translate(0 0.5625)"/>
       <use xlink:href="#STIXGeneral-Italic-46" transform="translate(49.999985 0.5625)"/>
       <use xlink:href="#STIXGeneral-Italic-61" transform="translate(111.099976 -12.665625) scale(0.7)"/>
       <use xlink:href="#TimesNewRomanPSMT-2f" transform="translate(150.579344 0.5625)"/>
       <use xlink:href="#STIXGeneral-Italic-46" transform="translate(178.362547 0.5625)"/>
       <use xlink:href="#STIXGeneral-Italic-61" transform="translate(239.462538 -12.665625) scale(0.7)"/>
      </g>
     </g>
    </g>
    <g id="xtick_3">
     <g id="line2d_5">
      <path d="M 224.434688 284.4 
L 224.434688 7.2 
" clip-path="url(#p3e3349bc3e)" style="fill: none; stroke: #b0b0b0; stroke-width: 0.8; stroke-linecap: square"/>
     </g>
     <g id="line2d_6">
      <g>
       <use xlink:href="#m8664658845" x="224.434688" y="284.4" style="stroke: #000000; stroke-width: 0.8"/>
      </g>
     </g>
     <g id="text_3">
      <!-- $\mathit{d}\rho_{т}$/$\rho_{т}$ -->
      <g transform="translate(206.864688 301.2) scale(0.14 -0.14)">
       <defs>
        <path id="TimesNewRomanPSMT-3c1" d="M 813 -1369 
L 278 -1369 
Q 394 -1009 394 -281 
L 394 1481 
Q 394 2228 816 2587 
Q 1238 2947 1747 2947 
Q 2300 2947 2637 2567 
Q 2975 2188 2975 1572 
Q 2975 900 2556 406 
Q 2138 -88 1600 -88 
Q 1238 -88 909 144 
L 909 -266 
Q 909 -919 813 -1369 
z
M 909 869 
Q 909 491 1109 292 
Q 1309 94 1619 94 
Q 1984 94 2229 408 
Q 2475 722 2475 1238 
Q 2475 1891 2140 2272 
Q 1806 2653 1397 2653 
Q 1119 2653 1014 2479 
Q 909 2306 909 1916 
L 909 869 
z
" transform="scale(0.015625)"/>
        <path id="TimesNewRomanPSMT-442" d="M 156 2863 
L 2631 2863 
L 2756 2088 
L 2616 2088 
Q 2578 2322 2490 2450 
Q 2403 2578 2290 2618 
Q 2178 2659 1906 2659 
L 1656 2659 
L 1656 672 
Q 1656 353 1695 267 
Q 1734 181 1821 153 
Q 1909 125 2222 116 
L 2222 0 
L 666 0 
L 666 116 
Q 966 122 1052 212 
Q 1138 303 1138 672 
L 1138 2659 
L 881 2659 
Q 613 2659 516 2626 
Q 419 2594 330 2470 
Q 241 2347 178 2088 
L 38 2088 
L 156 2863 
z
" transform="scale(0.015625)"/>
       </defs>
       <use xlink:href="#STIXGeneral-Italic-64" transform="translate(0 0.5625)"/>
       <use xlink:href="#TimesNewRomanPSMT-3c1" transform="translate(49.999985 0.5625)"/>
       <use xlink:href="#TimesNewRomanPSMT-442" transform="translate(101.405141 -25.2) scale(0.7)"/>
       <use xlink:href="#TimesNewRomanPSMT-2f" transform="translate(136.289711 0.5625)"/>
       <use xlink:href="#TimesNewRomanPSMT-3c1" transform="translate(164.072914 0.5625)"/>
       <use xlink:href="#TimesNewRomanPSMT-442" transform="translate(215.478071 -25.2) scale(0.7)"/>
      </g>
     </g>
    </g>
    <g id="xtick_4">
     <g id="line2d_7">
      <path d="M 293.608241 284.4 
L 293.608241 7.2 
" clip-path="url(#p3e3349bc3e)" style="fill: none; stroke: #b0b0b0; stroke-width: 0.8; stroke-linecap: square"/>
     </g>
     <g id="line2d_8">
      <g>
       <use xlink:href="#m8664658845" x="293.608241" y="284.4" style="stroke: #000000; stroke-width: 0.8"/>
      </g>
     </g>
     <g id="text_4">
      <!-- $\mathit{du}_1$/$\mathit{u}_1$ -->
      <g transform="translate(275.618241 301.2) scale(0.14 -0.14)">
       <defs>
        <path id="STIXGeneral-Italic-75" d="M 2950 762 
L 3040 704 
Q 2733 237 2560 89 
Q 2387 -58 2157 -58 
Q 1850 -58 1850 250 
Q 1850 538 2138 1510 
Q 1568 576 1257 253 
Q 947 -70 608 -70 
Q 269 -70 269 269 
Q 269 384 442 1088 
L 666 1978 
Q 755 2349 755 2406 
Q 755 2483 684 2521 
Q 614 2560 365 2560 
L 365 2650 
Q 806 2701 1325 2822 
L 1350 2803 
L 781 531 
Q 762 474 762 429 
Q 762 269 890 269 
Q 1178 269 1798 1210 
Q 2010 1530 2128 1795 
Q 2246 2061 2502 2765 
L 2976 2765 
L 2470 851 
Q 2349 390 2349 352 
Q 2349 243 2419 243 
Q 2496 243 2605 345 
Q 2714 448 2950 762 
z
" transform="scale(0.015625)"/>
        <path id="TimesNewRomanPSMT-31" d="M 750 3822 
L 1781 4325 
L 1884 4325 
L 1884 747 
Q 1884 391 1914 303 
Q 1944 216 2037 169 
Q 2131 122 2419 116 
L 2419 0 
L 825 0 
L 825 116 
Q 1125 122 1212 167 
Q 1300 213 1334 289 
Q 1369 366 1369 747 
L 1369 3034 
Q 1369 3497 1338 3628 
Q 1316 3728 1258 3775 
Q 1200 3822 1119 3822 
Q 1003 3822 797 3725 
L 750 3822 
z
" transform="scale(0.015625)"/>
       </defs>
       <use xlink:href="#STIXGeneral-Italic-64" transform="translate(0 0.5625)"/>
       <use xlink:href="#STIXGeneral-Italic-75" transform="translate(49.999985 0.5625)"/>
       <use xlink:href="#TimesNewRomanPSMT-31" transform="translate(99.999969 -25.2) scale(0.7)"/>
       <use xlink:href="#TimesNewRomanPSMT-2f" transform="translate(139.293719 0.5625)"/>
       <use xlink:href="#STIXGeneral-Italic-75" transform="translate(167.076923 0.5625)"/>
       <use xlink:href="#TimesNewRomanPSMT-31" transform="translate(217.076907 -25.2) scale(0.7)"/>
      </g>
     </g>
    </g>
    <g id="xtick_5">
     <g id="line2d_9">
      <path d="M 362.781795 284.4 
L 362.781795 7.2 
" clip-path="url(#p3e3349bc3e)" style="fill: none; stroke: #b0b0b0; stroke-width: 0.8; stroke-linecap: square"/>
     </g>
     <g id="line2d_10">
      <g>
       <use xlink:href="#m8664658845" x="362.781795" y="284.4" style="stroke: #000000; stroke-width: 0.8"/>
      </g>
     </g>
     <g id="text_5">
      <!-- $\mathit{dS}_г$/$\mathit{S}_г$ -->
      <g transform="translate(345.701795 301.2) scale(0.14 -0.14)">
       <defs>
        <path id="STIXGeneral-Italic-53" d="M 3251 4269 
L 2995 2989 
L 2880 3008 
Q 2880 3539 2720 3795 
Q 2560 4051 2118 4051 
Q 1786 4051 1594 3881 
Q 1402 3712 1402 3411 
Q 1402 3168 1504 3005 
Q 1606 2842 2035 2413 
Q 2464 1978 2611 1715 
Q 2758 1453 2758 1133 
Q 2758 589 2390 237 
Q 2022 -115 1466 -115 
Q 1222 -115 800 32 
Q 595 109 499 109 
Q 288 109 224 -96 
L 109 -96 
L 326 1338 
L 454 1325 
Q 442 1267 442 1178 
Q 442 710 701 409 
Q 960 109 1363 109 
Q 1734 109 1968 336 
Q 2202 563 2202 928 
Q 2202 1139 2118 1308 
Q 2035 1478 1818 1715 
L 1568 1984 
Q 1549 2003 1459 2102 
Q 1370 2202 1318 2253 
Q 1030 2560 934 2755 
Q 838 2950 838 3213 
Q 838 3699 1168 3980 
Q 1498 4262 1978 4262 
Q 2310 4262 2522 4173 
Q 2707 4102 2816 4102 
Q 2925 4102 2982 4134 
Q 3040 4166 3104 4269 
L 3251 4269 
z
" transform="scale(0.015625)"/>
        <path id="TimesNewRomanPSMT-433" d="M 2469 2863 
L 2584 2081 
L 2447 2081 
Q 2328 2469 2208 2564 
Q 2088 2659 1700 2659 
L 1094 2659 
L 1094 672 
Q 1094 341 1128 277 
Q 1163 213 1236 164 
Q 1309 116 1528 116 
L 1528 0 
L 97 0 
L 97 116 
Q 403 122 490 211 
Q 578 300 578 672 
L 578 2191 
Q 578 2494 543 2580 
Q 509 2666 423 2703 
Q 338 2741 97 2744 
L 97 2863 
L 2469 2863 
z
" transform="scale(0.015625)"/>
       </defs>
       <use xlink:href="#STIXGeneral-Italic-64" transform="translate(0 0.5625)"/>
       <use xlink:href="#STIXGeneral-Italic-53" transform="translate(49.999985 0.5625)"/>
       <use xlink:href="#TimesNewRomanPSMT-433" transform="translate(99.999969 -25.2) scale(0.7)"/>
       <use xlink:href="#TimesNewRomanPSMT-2f" transform="translate(133.004657 0.5625)"/>
       <use xlink:href="#STIXGeneral-Italic-53" transform="translate(160.78786 0.5625)"/>
       <use xlink:href="#TimesNewRomanPSMT-433" transform="translate(210.787845 -25.2) scale(0.7)"/>
      </g>
     </g>
    </g>
   </g>
   <g id="matplotlib.axis_2">
    <g id="ytick_1">
     <g id="line2d_11">
      <path d="M 57.034688 256.68 
L 391.834688 256.68 
" clip-path="url(#p3e3349bc3e)" style="fill: none; stroke: #b0b0b0; stroke-width: 0.8; stroke-linecap: square"/>
     </g>
     <g id="line2d_12">
      <defs>
       <path id="mc18f49f8f6" d="M 0 0 
L -3.5 0 
" style="stroke: #000000; stroke-width: 0.8"/>
      </defs>
      <g>
       <use xlink:href="#mc18f49f8f6" x="57.034688" y="256.68" style="stroke: #000000; stroke-width: 0.8"/>
      </g>
     </g>
     <g id="text_6">
      <!-- −0.4 -->
      <g transform="translate(24.64 261.540625) scale(0.14 -0.14)">
       <defs>
        <path id="TimesNewRomanPSMT-2212" d="M 3484 2000 
L 116 2000 
L 116 2256 
L 3484 2256 
L 3484 2000 
z
" transform="scale(0.015625)"/>
        <path id="TimesNewRomanPSMT-30" d="M 231 2094 
Q 231 2819 450 3342 
Q 669 3866 1031 4122 
Q 1313 4325 1613 4325 
Q 2100 4325 2488 3828 
Q 2972 3213 2972 2159 
Q 2972 1422 2759 906 
Q 2547 391 2217 158 
Q 1888 -75 1581 -75 
Q 975 -75 572 641 
Q 231 1244 231 2094 
z
M 844 2016 
Q 844 1141 1059 588 
Q 1238 122 1591 122 
Q 1759 122 1940 273 
Q 2122 425 2216 781 
Q 2359 1319 2359 2297 
Q 2359 3022 2209 3506 
Q 2097 3866 1919 4016 
Q 1791 4119 1609 4119 
Q 1397 4119 1231 3928 
Q 1006 3669 925 3112 
Q 844 2556 844 2016 
z
" transform="scale(0.015625)"/>
        <path id="TimesNewRomanPSMT-2e" d="M 800 606 
Q 947 606 1047 504 
Q 1147 403 1147 259 
Q 1147 116 1045 14 
Q 944 -88 800 -88 
Q 656 -88 554 14 
Q 453 116 453 259 
Q 453 406 554 506 
Q 656 606 800 606 
z
" transform="scale(0.015625)"/>
        <path id="TimesNewRomanPSMT-34" d="M 2978 1563 
L 2978 1119 
L 2409 1119 
L 2409 0 
L 1894 0 
L 1894 1119 
L 100 1119 
L 100 1519 
L 2066 4325 
L 2409 4325 
L 2409 1563 
L 2978 1563 
z
M 1894 1563 
L 1894 3666 
L 406 1563 
L 1894 1563 
z
" transform="scale(0.015625)"/>
       </defs>
       <use xlink:href="#TimesNewRomanPSMT-2212"/>
       <use xlink:href="#TimesNewRomanPSMT-30" x="56.396484"/>
       <use xlink:href="#TimesNewRomanPSMT-2e" x="106.396484"/>
       <use xlink:href="#TimesNewRomanPSMT-34" x="131.396484"/>
      </g>
     </g>
    </g>
    <g id="ytick_2">
     <g id="line2d_13">
      <path d="M 57.034688 201.24 
L 391.834688 201.24 
" clip-path="url(#p3e3349bc3e)" style="fill: none; stroke: #b0b0b0; stroke-width: 0.8; stroke-linecap: square"/>
     </g>
     <g id="line2d_14">
      <g>
       <use xlink:href="#mc18f49f8f6" x="57.034688" y="201.24" style="stroke: #000000; stroke-width: 0.8"/>
      </g>
     </g>
     <g id="text_7">
      <!-- −0.2 -->
      <g transform="translate(24.64 206.100625) scale(0.14 -0.14)">
       <defs>
        <path id="TimesNewRomanPSMT-32" d="M 2934 816 
L 2638 0 
L 138 0 
L 138 116 
Q 1241 1122 1691 1759 
Q 2141 2397 2141 2925 
Q 2141 3328 1894 3587 
Q 1647 3847 1303 3847 
Q 991 3847 742 3664 
Q 494 3481 375 3128 
L 259 3128 
Q 338 3706 661 4015 
Q 984 4325 1469 4325 
Q 1984 4325 2329 3994 
Q 2675 3663 2675 3213 
Q 2675 2891 2525 2569 
Q 2294 2063 1775 1497 
Q 997 647 803 472 
L 1909 472 
Q 2247 472 2383 497 
Q 2519 522 2628 598 
Q 2738 675 2819 816 
L 2934 816 
z
" transform="scale(0.015625)"/>
       </defs>
       <use xlink:href="#TimesNewRomanPSMT-2212"/>
       <use xlink:href="#TimesNewRomanPSMT-30" x="56.396484"/>
       <use xlink:href="#TimesNewRomanPSMT-2e" x="106.396484"/>
       <use xlink:href="#TimesNewRomanPSMT-32" x="131.396484"/>
      </g>
     </g>
    </g>
    <g id="ytick_3">
     <g id="line2d_15">
      <path d="M 57.034688 145.8 
L 391.834688 145.8 
" clip-path="url(#p3e3349bc3e)" style="fill: none; stroke: #b0b0b0; stroke-width: 0.8; stroke-linecap: square"/>
     </g>
     <g id="line2d_16">
      <g>
       <use xlink:href="#mc18f49f8f6" x="57.034688" y="145.8" style="stroke: #000000; stroke-width: 0.8"/>
      </g>
     </g>
     <g id="text_8">
      <!-- 0.0 -->
      <g transform="translate(32.534688 150.660625) scale(0.14 -0.14)">
       <use xlink:href="#TimesNewRomanPSMT-30"/>
       <use xlink:href="#TimesNewRomanPSMT-2e" x="50"/>
       <use xlink:href="#TimesNewRomanPSMT-30" x="75"/>
      </g>
     </g>
    </g>
    <g id="ytick_4">
     <g id="line2d_17">
      <path d="M 57.034688 90.36 
L 391.834688 90.36 
" clip-path="url(#p3e3349bc3e)" style="fill: none; stroke: #b0b0b0; stroke-width: 0.8; stroke-linecap: square"/>
     </g>
     <g id="line2d_18">
      <g>
       <use xlink:href="#mc18f49f8f6" x="57.034688" y="90.36" style="stroke: #000000; stroke-width: 0.8"/>
      </g>
     </g>
     <g id="text_9">
      <!-- 0.2 -->
      <g transform="translate(32.534688 95.220625) scale(0.14 -0.14)">
       <use xlink:href="#TimesNewRomanPSMT-30"/>
       <use xlink:href="#TimesNewRomanPSMT-2e" x="50"/>
       <use xlink:href="#TimesNewRomanPSMT-32" x="75"/>
      </g>
     </g>
    </g>
    <g id="ytick_5">
     <g id="line2d_19">
      <path d="M 57.034688 34.92 
L 391.834688 34.92 
" clip-path="url(#p3e3349bc3e)" style="fill: none; stroke: #b0b0b0; stroke-width: 0.8; stroke-linecap: square"/>
     </g>
     <g id="line2d_20">
      <g>
       <use xlink:href="#mc18f49f8f6" x="57.034688" y="34.92" style="stroke: #000000; stroke-width: 0.8"/>
      </g>
     </g>
     <g id="text_10">
      <!-- 0.4 -->
      <g transform="translate(32.534688 39.780625) scale(0.14 -0.14)">
       <use xlink:href="#TimesNewRomanPSMT-30"/>
       <use xlink:href="#TimesNewRomanPSMT-2e" x="50"/>
       <use xlink:href="#TimesNewRomanPSMT-34" x="75"/>
      </g>
     </g>
    </g>
    <g id="text_11">
     <!-- Коэффициент влияния на $\mathit{J}_{\infty}$ -->
     <g transform="translate(17 230.71) rotate(-90) scale(0.14 -0.14)">
      <defs>
       <path id="TimesNewRomanPSMT-41a" d="M 4247 116 
L 4247 0 
L 3153 0 
Q 2975 284 2403 1073 
Q 1831 1863 1706 1948 
Q 1581 2034 1328 2038 
L 1328 772 
Q 1328 353 1436 240 
Q 1544 128 1941 116 
L 1941 0 
L 116 0 
L 116 116 
Q 506 128 617 239 
Q 728 350 728 772 
L 728 3466 
Q 728 3884 618 3996 
Q 509 4109 116 4122 
L 116 4238 
L 1941 4238 
L 1941 4122 
Q 1544 4109 1436 3996 
Q 1328 3884 1328 3466 
L 1328 2284 
Q 1669 2288 1800 2330 
Q 1931 2372 2095 2522 
Q 2259 2672 2354 2845 
Q 2450 3019 2600 3416 
Q 2741 3788 2830 3933 
Q 2919 4078 3116 4183 
Q 3313 4288 3584 4288 
Q 4066 4288 4066 3950 
Q 4066 3831 3970 3743 
Q 3875 3656 3753 3656 
Q 3666 3656 3459 3756 
Q 3278 3847 3206 3847 
Q 3106 3847 3034 3742 
Q 2963 3638 2806 3209 
Q 2506 2409 2041 2194 
Q 2325 2144 2828 1416 
Q 3363 644 3613 384 
Q 3863 125 4247 116 
z
" transform="scale(0.015625)"/>
       <path id="TimesNewRomanPSMT-43e" d="M 1600 2947 
Q 2250 2947 2644 2453 
Q 2978 2031 2978 1484 
Q 2978 1100 2793 706 
Q 2609 313 2286 112 
Q 1963 -88 1566 -88 
Q 919 -88 538 428 
Q 216 863 216 1403 
Q 216 1797 411 2186 
Q 606 2575 925 2761 
Q 1244 2947 1600 2947 
z
M 1503 2744 
Q 1338 2744 1170 2645 
Q 1003 2547 900 2300 
Q 797 2053 797 1666 
Q 797 1041 1045 587 
Q 1294 134 1700 134 
Q 2003 134 2200 384 
Q 2397 634 2397 1244 
Q 2397 2006 2069 2444 
Q 1847 2744 1503 2744 
z
" transform="scale(0.015625)"/>
       <path id="TimesNewRomanPSMT-44d" d="M 281 1972 
L 400 1972 
Q 438 2300 631 2522 
Q 825 2744 1119 2744 
Q 1434 2744 1646 2442 
Q 1859 2141 1919 1625 
L 991 1625 
L 991 1422 
L 1941 1422 
L 1941 1269 
Q 1941 647 1694 376 
Q 1447 106 1078 106 
Q 544 106 191 609 
L 84 547 
Q 519 -88 1141 -88 
Q 1753 -88 2140 370 
Q 2528 828 2528 1469 
Q 2528 2125 2131 2536 
Q 1734 2947 1241 2947 
Q 1047 2947 756 2856 
Q 581 2803 531 2803 
Q 466 2803 400 2863 
L 281 2863 
L 281 1972 
z
" transform="scale(0.015625)"/>
       <path id="TimesNewRomanPSMT-444" d="M 1334 4091 
L 2178 4444 
L 2316 4444 
L 2316 2684 
Q 2600 2947 2894 2947 
Q 3297 2947 3586 2503 
Q 3875 2059 3875 1428 
Q 3875 809 3581 360 
Q 3288 -88 2869 -88 
Q 2559 -88 2316 188 
L 2316 -697 
Q 2316 -1009 2352 -1095 
Q 2388 -1181 2481 -1217 
Q 2575 -1253 2875 -1253 
L 2875 -1369 
L 1334 -1369 
L 1334 -1253 
Q 1647 -1253 1739 -1164 
Q 1831 -1075 1831 -697 
L 1831 188 
Q 1597 -88 1281 -88 
Q 847 -88 559 362 
Q 272 813 272 1459 
Q 272 2044 547 2495 
Q 822 2947 1266 2947 
Q 1594 2947 1831 2647 
L 1831 3422 
Q 1831 3822 1781 3931 
Q 1731 4041 1606 4041 
Q 1503 4041 1381 3988 
L 1334 4091 
z
M 1831 2369 
Q 1656 2738 1381 2738 
Q 1116 2738 967 2389 
Q 819 2041 819 1353 
Q 819 747 967 436 
Q 1116 125 1381 125 
Q 1625 125 1831 409 
L 1831 2369 
z
M 2316 463 
Q 2378 300 2512 212 
Q 2647 125 2769 125 
Q 3009 125 3164 428 
Q 3319 731 3319 1375 
Q 3319 2738 2778 2738 
Q 2550 2738 2316 2484 
L 2316 463 
z
" transform="scale(0.015625)"/>
       <path id="TimesNewRomanPSMT-438" d="M 1094 881 
L 2331 2313 
Q 2325 2553 2240 2647 
Q 2156 2741 1950 2744 
L 1950 2863 
L 3281 2863 
L 3281 2744 
Q 3072 2744 3000 2701 
Q 2928 2659 2887 2596 
Q 2847 2534 2847 2191 
L 2847 672 
Q 2847 341 2881 277 
Q 2916 213 2989 164 
Q 3063 116 3281 116 
L 3281 0 
L 1897 0 
L 1897 116 
Q 2156 116 2243 211 
Q 2331 306 2331 672 
L 2331 2019 
L 1094 584 
Q 1100 319 1169 219 
Q 1238 119 1466 116 
L 1466 0 
L 144 0 
L 144 116 
Q 422 116 500 217 
Q 578 319 578 672 
L 578 2191 
Q 578 2525 543 2586 
Q 509 2647 437 2695 
Q 366 2744 144 2744 
L 144 2863 
L 1528 2863 
L 1528 2744 
Q 1319 2744 1247 2701 
Q 1175 2659 1134 2596 
Q 1094 2534 1094 2191 
L 1094 881 
z
" transform="scale(0.015625)"/>
       <path id="TimesNewRomanPSMT-446" d="M 3281 116 
L 3281 -794 
L 3166 -794 
Q 3156 -428 2926 -214 
Q 2697 0 2094 0 
L 144 0 
L 144 116 
Q 422 116 500 217 
Q 578 319 578 672 
L 578 2191 
Q 578 2525 543 2586 
Q 509 2647 437 2695 
Q 366 2744 144 2744 
L 144 2863 
L 1528 2863 
L 1528 2744 
Q 1319 2744 1247 2701 
Q 1175 2659 1134 2596 
Q 1094 2534 1094 2191 
L 1094 575 
Q 1094 303 1142 253 
Q 1191 203 1453 203 
L 1959 203 
Q 2250 203 2290 256 
Q 2331 309 2331 600 
L 2331 2191 
Q 2331 2488 2300 2573 
Q 2269 2659 2178 2701 
Q 2088 2744 1897 2744 
L 1897 2863 
L 3281 2863 
L 3281 2744 
Q 3072 2744 3000 2701 
Q 2928 2659 2887 2596 
Q 2847 2534 2847 2191 
L 2847 719 
Q 2847 316 2919 222 
Q 2991 128 3281 116 
z
" transform="scale(0.015625)"/>
       <path id="TimesNewRomanPSMT-435" d="M 681 1784 
Q 678 1147 991 784 
Q 1303 422 1725 422 
Q 2006 422 2214 576 
Q 2422 731 2563 1106 
L 2659 1044 
Q 2594 616 2278 264 
Q 1963 -88 1488 -88 
Q 972 -88 605 314 
Q 238 716 238 1394 
Q 238 2128 614 2539 
Q 991 2950 1559 2950 
Q 2041 2950 2350 2633 
Q 2659 2316 2659 1784 
L 681 1784 
z
M 681 1966 
L 2006 1966 
Q 1991 2241 1941 2353 
Q 1863 2528 1708 2628 
Q 1553 2728 1384 2728 
Q 1125 2728 920 2526 
Q 716 2325 681 1966 
z
" transform="scale(0.015625)"/>
       <path id="TimesNewRomanPSMT-43d" d="M 1094 1584 
L 2331 1584 
L 2331 2191 
Q 2331 2463 2309 2545 
Q 2288 2628 2202 2686 
Q 2116 2744 1897 2744 
L 1897 2863 
L 3281 2863 
L 3281 2744 
Q 3088 2744 2998 2700 
Q 2909 2656 2878 2573 
Q 2847 2491 2847 2191 
L 2847 672 
Q 2847 400 2870 312 
Q 2894 225 2984 170 
Q 3075 116 3281 116 
L 3281 0 
L 1897 0 
L 1897 116 
Q 2156 116 2243 211 
Q 2331 306 2331 672 
L 2331 1381 
L 1094 1381 
L 1094 672 
Q 1094 400 1117 312 
Q 1141 225 1231 170 
Q 1322 116 1528 116 
L 1528 0 
L 144 0 
L 144 116 
Q 422 116 500 217 
Q 578 319 578 672 
L 578 2191 
Q 578 2463 554 2550 
Q 531 2638 440 2691 
Q 350 2744 144 2744 
L 144 2863 
L 1528 2863 
L 1528 2744 
Q 1334 2744 1245 2700 
Q 1156 2656 1125 2573 
Q 1094 2491 1094 2191 
L 1094 1584 
z
" transform="scale(0.015625)"/>
       <path id="TimesNewRomanPSMT-20" transform="scale(0.015625)"/>
       <path id="TimesNewRomanPSMT-432" d="M 2016 1513 
Q 2800 1350 2800 778 
Q 2800 388 2473 194 
Q 2147 0 1563 0 
L 150 0 
L 150 116 
Q 428 116 501 220 
Q 575 325 575 672 
L 575 2191 
Q 575 2528 542 2587 
Q 509 2647 439 2695 
Q 369 2744 150 2744 
L 150 2863 
L 1469 2863 
Q 1850 2863 2086 2803 
Q 2322 2744 2473 2569 
Q 2625 2394 2625 2144 
Q 2625 1656 2016 1513 
z
M 1094 1584 
Q 1231 1581 1259 1581 
Q 1688 1581 1878 1745 
Q 2069 1909 2069 2144 
Q 2069 2416 1875 2537 
Q 1681 2659 1256 2659 
L 1094 2659 
L 1094 1584 
z
M 1094 253 
Q 1250 203 1466 203 
Q 1838 203 2019 365 
Q 2200 528 2200 784 
Q 2200 1072 1965 1225 
Q 1731 1378 1316 1378 
Q 1213 1378 1094 1372 
L 1094 253 
z
" transform="scale(0.015625)"/>
       <path id="TimesNewRomanPSMT-43b" d="M 494 2863 
L 3053 2863 
L 3053 2744 
Q 2841 2744 2770 2701 
Q 2700 2659 2659 2596 
Q 2619 2534 2619 2191 
L 2619 672 
Q 2619 341 2653 277 
Q 2688 213 2761 164 
Q 2834 116 3053 116 
L 3053 0 
L 1572 0 
L 1572 116 
Q 1813 116 1905 141 
Q 1997 166 2050 261 
Q 2103 356 2103 672 
L 2103 2659 
L 1150 2659 
L 1150 1453 
Q 1150 769 1089 492 
Q 1028 216 848 83 
Q 669 -50 438 -50 
Q 38 -50 38 281 
Q 38 394 102 466 
Q 166 538 269 538 
Q 378 538 472 447 
Q 594 328 656 328 
Q 797 328 861 564 
Q 925 800 925 1391 
L 925 2022 
Q 925 2509 854 2615 
Q 784 2722 494 2744 
L 494 2863 
z
" transform="scale(0.015625)"/>
       <path id="TimesNewRomanPSMT-44f" d="M 2800 2863 
L 2800 2744 
Q 2606 2744 2514 2691 
Q 2422 2638 2394 2556 
Q 2366 2475 2366 2191 
L 2366 672 
Q 2366 400 2391 314 
Q 2416 228 2511 172 
Q 2606 116 2800 116 
L 2800 0 
L 1416 0 
L 1416 116 
Q 1675 116 1762 211 
Q 1850 306 1850 672 
L 1850 1294 
L 1722 1291 
Q 1694 1291 1622 1294 
L 709 0 
L -3 0 
L -3 116 
Q 153 116 214 158 
Q 275 200 441 434 
L 1109 1378 
Q 391 1628 391 2144 
Q 391 2434 648 2648 
Q 906 2863 1528 2863 
L 2800 2863 
z
M 1850 2625 
Q 1728 2659 1619 2659 
Q 1303 2659 1147 2503 
Q 991 2347 991 2131 
Q 991 1856 1212 1675 
Q 1434 1494 1772 1494 
Q 1806 1494 1850 1500 
L 1850 2625 
z
" transform="scale(0.015625)"/>
       <path id="TimesNewRomanPSMT-430" d="M 1822 413 
Q 1381 72 1269 19 
Q 1100 -59 909 -59 
Q 613 -59 420 144 
Q 228 347 228 678 
Q 228 888 322 1041 
Q 450 1253 767 1440 
Q 1084 1628 1822 1897 
L 1822 2009 
Q 1822 2438 1686 2597 
Q 1550 2756 1291 2756 
Q 1094 2756 978 2650 
Q 859 2544 859 2406 
L 866 2225 
Q 866 2081 792 2003 
Q 719 1925 600 1925 
Q 484 1925 411 2006 
Q 338 2088 338 2228 
Q 338 2497 613 2722 
Q 888 2947 1384 2947 
Q 1766 2947 2009 2819 
Q 2194 2722 2281 2516 
Q 2338 2381 2338 1966 
L 2338 994 
Q 2338 584 2353 492 
Q 2369 400 2405 369 
Q 2441 338 2488 338 
Q 2538 338 2575 359 
Q 2641 400 2828 588 
L 2828 413 
Q 2478 -56 2159 -56 
Q 2006 -56 1915 50 
Q 1825 156 1822 413 
z
M 1822 616 
L 1822 1706 
Q 1350 1519 1213 1441 
Q 966 1303 859 1153 
Q 753 1003 753 825 
Q 753 600 887 451 
Q 1022 303 1197 303 
Q 1434 303 1822 616 
z
" transform="scale(0.015625)"/>
       <path id="STIXGeneral-Italic-4a" d="M 3142 4179 
L 3142 4077 
Q 2867 4038 2784 3964 
Q 2701 3891 2618 3603 
L 1958 1254 
Q 1773 589 1504 237 
Q 1235 -115 710 -115 
Q 371 -115 166 38 
Q -38 192 -38 448 
Q -38 602 42 704 
Q 122 806 250 806 
Q 378 806 477 720 
Q 576 634 576 512 
Q 576 474 566 419 
Q 557 365 557 339 
Q 557 90 781 90 
Q 1005 90 1120 499 
L 1933 3405 
Q 2010 3686 2010 3814 
Q 2010 3942 1914 3996 
Q 1818 4051 1517 4077 
L 1517 4179 
L 3142 4179 
z
" transform="scale(0.015625)"/>
       <path id="TimesNewRomanPSMT-221e" d="M 2041 2084 
Q 2253 2572 2506 2761 
Q 2759 2950 3197 2950 
Q 3700 2950 4047 2587 
Q 4394 2225 4394 1647 
Q 4394 1075 4056 704 
Q 3719 334 3303 334 
Q 2994 334 2728 563 
Q 2553 713 2250 1228 
Q 2050 841 1812 670 
Q 1575 500 1238 500 
Q 788 500 477 822 
Q 166 1144 166 1653 
Q 166 2169 453 2484 
Q 741 2800 1125 2800 
Q 1394 2800 1600 2661 
Q 1806 2522 2041 2084 
z
M 2341 1450 
Q 2575 963 2803 795 
Q 3031 628 3316 628 
Q 3700 628 3958 904 
Q 4216 1181 4216 1647 
Q 4216 2106 3944 2406 
Q 3672 2706 3334 2706 
Q 3119 2706 2958 2597 
Q 2797 2488 2666 2247 
Q 2591 2106 2341 1450 
z
M 1950 1844 
Q 1797 2188 1600 2350 
Q 1403 2513 1116 2513 
Q 784 2513 561 2280 
Q 338 2047 338 1656 
Q 338 1241 558 992 
Q 778 744 1056 744 
Q 1353 744 1581 1009 
Q 1728 1184 1950 1844 
z
" transform="scale(0.015625)"/>
      </defs>
      <use xlink:href="#TimesNewRomanPSMT-41a" transform="translate(0 0.5625)"/>
      <use xlink:href="#TimesNewRomanPSMT-43e" transform="translate(66.699219 0.5625)"/>
      <use xlink:href="#TimesNewRomanPSMT-44d" transform="translate(116.699219 0.5625)"/>
      <use xlink:href="#TimesNewRomanPSMT-444" transform="translate(159.619141 0.5625)"/>
      <use xlink:href="#TimesNewRomanPSMT-444" transform="translate(224.414062 0.5625)"/>
      <use xlink:href="#TimesNewRomanPSMT-438" transform="translate(289.208984 0.5625)"/>
      <use xlink:href="#TimesNewRomanPSMT-446" transform="translate(342.724609 0.5625)"/>
      <use xlink:href="#TimesNewRomanPSMT-438" transform="translate(396.240234 0.5625)"/>
      <use xlink:href="#TimesNewRomanPSMT-435" transform="translate(449.755859 0.5625)"/>
      <use xlink:href="#TimesNewRomanPSMT-43d" transform="translate(494.140625 0.5625)"/>
      <use xlink:href="#TimesNewRomanPSMT-442" transform="translate(547.65625 0.5625)"/>
      <use xlink:href="#TimesNewRomanPSMT-20" transform="translate(591.357422 0.5625)"/>
      <use xlink:href="#TimesNewRomanPSMT-432" transform="translate(616.357422 0.5625)"/>
      <use xlink:href="#TimesNewRomanPSMT-43b" transform="translate(663.574219 0.5625)"/>
      <use xlink:href="#TimesNewRomanPSMT-438" transform="translate(713.476562 0.5625)"/>
      <use xlink:href="#TimesNewRomanPSMT-44f" transform="translate(766.992188 0.5625)"/>
      <use xlink:href="#TimesNewRomanPSMT-43d" transform="translate(812.988281 0.5625)"/>
      <use xlink:href="#TimesNewRomanPSMT-438" transform="translate(866.503906 0.5625)"/>
      <use xlink:href="#TimesNewRomanPSMT-44f" transform="translate(920.019531 0.5625)"/>
      <use xlink:href="#TimesNewRomanPSMT-20" transform="translate(966.015625 0.5625)"/>
      <use xlink:href="#TimesNewRomanPSMT-43d" transform="translate(991.015625 0.5625)"/>
      <use xlink:href="#TimesNewRomanPSMT-430" transform="translate(1044.53125 0.5625)"/>
      <use xlink:href="#TimesNewRomanPSMT-20" transform="translate(1088.916016 0.5625)"/>
      <use xlink:href="#STIXGeneral-Italic-4a" transform="translate(1113.916016 0.5625)"/>
      <use xlink:href="#TimesNewRomanPSMT-221e" transform="translate(1158.31601 -25.2) scale(0.7)"/>
     </g>
    </g>
   </g>
   <g id="patch_3">
    <path d="M 72.252869 145.8 
L 99.922291 145.8 
L 99.922291 171.8568 
L 72.252869 171.8568 
z
" clip-path="url(#p3e3349bc3e)" style="opacity: 0.9"/>
   </g>
   <g id="patch_4">
    <path d="M 141.426423 145.8 
L 169.095845 145.8 
L 169.095845 133.8804 
L 141.426423 133.8804 
z
" clip-path="url(#p3e3349bc3e)" style="opacity: 0.9"/>
   </g>
   <g id="patch_5">
    <path d="M 210.599977 145.8 
L 238.269398 145.8 
L 238.269398 131.3856 
L 210.599977 131.3856 
z
" clip-path="url(#p3e3349bc3e)" style="opacity: 0.9"/>
   </g>
   <g id="patch_6">
    <path d="M 279.77353 145.8 
L 307.442952 145.8 
L 307.442952 131.3856 
L 279.77353 131.3856 
z
" clip-path="url(#p3e3349bc3e)" style="opacity: 0.9"/>
   </g>
   <g id="patch_7">
    <path d="M 348.947084 145.8 
L 376.616506 145.8 
L 376.616506 131.3856 
L 348.947084 131.3856 
z
" clip-path="url(#p3e3349bc3e)" style="opacity: 0.9"/>
   </g>
   <g id="patch_8">
    <path d="M 57.034688 284.4 
L 57.034688 7.2 
" style="fill: none; stroke: #000000; stroke-width: 0.8; stroke-linejoin: miter; stroke-linecap: square"/>
   </g>
   <g id="patch_9">
    <path d="M 391.834688 284.4 
L 391.834688 7.2 
" style="fill: none; stroke: #000000; stroke-width: 0.8; stroke-linejoin: miter; stroke-linecap: square"/>
   </g>
   <g id="patch_10">
    <path d="M 57.034688 284.4 
L 391.834688 284.4 
" style="fill: none; stroke: #000000; stroke-width: 0.8; stroke-linejoin: miter; stroke-linecap: square"/>
   </g>
   <g id="patch_11">
    <path d="M 57.034688 7.2 
L 391.834688 7.2 
" style="fill: none; stroke: #000000; stroke-width: 0.8; stroke-linejoin: miter; stroke-linecap: square"/>
   </g>
   <g id="text_12">
    <!-- -0.094 -->
    <g transform="translate(68.006799 184.57805) scale(0.14 -0.14)">
     <defs>
      <path id="TimesNewRomanPSMT-2d" d="M 259 1672 
L 1875 1672 
L 1875 1200 
L 259 1200 
L 259 1672 
z
" transform="scale(0.015625)"/>
      <path id="TimesNewRomanPSMT-39" d="M 338 -88 
L 338 28 
Q 744 34 1094 217 
Q 1444 400 1770 856 
Q 2097 1313 2225 1859 
Q 1734 1544 1338 1544 
Q 891 1544 572 1889 
Q 253 2234 253 2806 
Q 253 3363 572 3797 
Q 956 4325 1575 4325 
Q 2097 4325 2469 3894 
Q 2925 3359 2925 2575 
Q 2925 1869 2578 1258 
Q 2231 647 1613 244 
Q 1109 -88 516 -88 
L 338 -88 
z
M 2275 2091 
Q 2331 2497 2331 2741 
Q 2331 3044 2228 3395 
Q 2125 3747 1936 3934 
Q 1747 4122 1506 4122 
Q 1228 4122 1018 3872 
Q 809 3622 809 3128 
Q 809 2469 1088 2097 
Q 1291 1828 1588 1828 
Q 1731 1828 1928 1897 
Q 2125 1966 2275 2091 
z
" transform="scale(0.015625)"/>
     </defs>
     <use xlink:href="#TimesNewRomanPSMT-2d"/>
     <use xlink:href="#TimesNewRomanPSMT-30" x="33.300781"/>
     <use xlink:href="#TimesNewRomanPSMT-2e" x="83.300781"/>
     <use xlink:href="#TimesNewRomanPSMT-30" x="108.300781"/>
     <use xlink:href="#TimesNewRomanPSMT-39" x="158.300781"/>
     <use xlink:href="#TimesNewRomanPSMT-34" x="208.300781"/>
    </g>
   </g>
   <g id="text_13">
    <!-- 0.043 -->
    <g transform="translate(139.511134 127.885712) scale(0.14 -0.14)">
     <defs>
      <path id="TimesNewRomanPSMT-33" d="M 325 3431 
Q 506 3859 782 4092 
Q 1059 4325 1472 4325 
Q 1981 4325 2253 3994 
Q 2459 3747 2459 3466 
Q 2459 3003 1878 2509 
Q 2269 2356 2469 2072 
Q 2669 1788 2669 1403 
Q 2669 853 2319 450 
Q 1863 -75 997 -75 
Q 569 -75 414 31 
Q 259 138 259 259 
Q 259 350 332 419 
Q 406 488 509 488 
Q 588 488 669 463 
Q 722 447 909 348 
Q 1097 250 1169 231 
Q 1284 197 1416 197 
Q 1734 197 1970 444 
Q 2206 691 2206 1028 
Q 2206 1275 2097 1509 
Q 2016 1684 1919 1775 
Q 1784 1900 1550 2001 
Q 1316 2103 1072 2103 
L 972 2103 
L 972 2197 
Q 1219 2228 1467 2375 
Q 1716 2522 1828 2728 
Q 1941 2934 1941 3181 
Q 1941 3503 1739 3701 
Q 1538 3900 1238 3900 
Q 753 3900 428 3381 
L 325 3431 
z
" transform="scale(0.015625)"/>
     </defs>
     <use xlink:href="#TimesNewRomanPSMT-30"/>
     <use xlink:href="#TimesNewRomanPSMT-2e" x="50"/>
     <use xlink:href="#TimesNewRomanPSMT-30" x="75"/>
     <use xlink:href="#TimesNewRomanPSMT-34" x="125"/>
     <use xlink:href="#TimesNewRomanPSMT-33" x="175"/>
    </g>
   </g>
   <g id="text_14">
    <!-- 0.052 -->
    <g transform="translate(208.684688 125.390912) scale(0.14 -0.14)">
     <defs>
      <path id="TimesNewRomanPSMT-35" d="M 2778 4238 
L 2534 3706 
L 1259 3706 
L 981 3138 
Q 1809 3016 2294 2522 
Q 2709 2097 2709 1522 
Q 2709 1188 2573 903 
Q 2438 619 2231 419 
Q 2025 219 1772 97 
Q 1413 -75 1034 -75 
Q 653 -75 479 54 
Q 306 184 306 341 
Q 306 428 378 495 
Q 450 563 559 563 
Q 641 563 702 538 
Q 763 513 909 409 
Q 1144 247 1384 247 
Q 1750 247 2026 523 
Q 2303 800 2303 1197 
Q 2303 1581 2056 1914 
Q 1809 2247 1375 2428 
Q 1034 2569 447 2591 
L 1259 4238 
L 2778 4238 
z
" transform="scale(0.015625)"/>
     </defs>
     <use xlink:href="#TimesNewRomanPSMT-30"/>
     <use xlink:href="#TimesNewRomanPSMT-2e" x="50"/>
     <use xlink:href="#TimesNewRomanPSMT-30" x="75"/>
     <use xlink:href="#TimesNewRomanPSMT-35" x="125"/>
     <use xlink:href="#TimesNewRomanPSMT-32" x="175"/>
    </g>
   </g>
   <g id="text_15">
    <!-- 0.052 -->
    <g transform="translate(277.858241 125.390912) scale(0.14 -0.14)">
     <use xlink:href="#TimesNewRomanPSMT-30"/>
     <use xlink:href="#TimesNewRomanPSMT-2e" x="50"/>
     <use xlink:href="#TimesNewRomanPSMT-30" x="75"/>
     <use xlink:href="#TimesNewRomanPSMT-35" x="125"/>
     <use xlink:href="#TimesNewRomanPSMT-32" x="175"/>
    </g>
   </g>
   <g id="text_16">
    <!-- 0.052 -->
    <g transform="translate(347.031795 125.390912) scale(0.14 -0.14)">
     <use xlink:href="#TimesNewRomanPSMT-30"/>
     <use xlink:href="#TimesNewRomanPSMT-2e" x="50"/>
     <use xlink:href="#TimesNewRomanPSMT-30" x="75"/>
     <use xlink:href="#TimesNewRomanPSMT-35" x="125"/>
     <use xlink:href="#TimesNewRomanPSMT-32" x="175"/>
    </g>
   </g>
  </g>
 </g>
 <defs>
  <clipPath id="p3e3349bc3e">
   <rect x="57.034688" y="7.2" width="334.8" height="277.2"/>
  </clipPath>
 </defs>
</svg>
