<?xml version="1.0" encoding="utf-8" standalone="no"?>
<!DOCTYPE svg PUBLIC "-//W3C//DTD SVG 1.1//EN"
  "http://www.w3.org/Graphics/SVG/1.1/DTD/svg11.dtd">
<svg xmlns:xlink="http://www.w3.org/1999/xlink" width="380.64pt" height="314.14pt" viewBox="0 0 380.64 314.14" xmlns="http://www.w3.org/2000/svg" version="1.1">
 <metadata>
  <rdf:RDF xmlns:dc="http://purl.org/dc/elements/1.1/" xmlns:cc="http://creativecommons.org/ns#" xmlns:rdf="http://www.w3.org/1999/02/22-rdf-syntax-ns#">
   <cc:Work>
    <dc:type rdf:resource="http://purl.org/dc/dcmitype/StillImage"/>
    <dc:date>2022-12-16T16:33:53.554895</dc:date>
    <dc:format>image/svg+xml</dc:format>
    <dc:creator>
     <cc:Agent>
      <dc:title>Matplotlib v3.6.2, https://matplotlib.org/</dc:title>
     </cc:Agent>
    </dc:creator>
   </cc:Work>
  </rdf:RDF>
 </metadata>
 <defs>
  <style type="text/css">*{stroke-linejoin: round; stroke-linecap: butt}</style>
 </defs>
 <g id="figure_1">
  <g id="patch_1">
   <path d="M -0 314.14 
L 380.64 314.14 
L 380.64 0 
L -0 0 
z
" style="fill: #ffffff"/>
  </g>
  <g id="axes_1">
   <g id="patch_2">
    <path d="M 38.64 284.4 
L 373.44 284.4 
L 373.44 7.2 
L 38.64 7.2 
z
" style="fill: #ffffff"/>
   </g>
   <g id="matplotlib.axis_1">
    <g id="xtick_1">
     <g id="line2d_1">
      <defs>
       <path id="m3c575774f3" d="M 0 0 
L 0 3.5 
" style="stroke: #000000; stroke-width: 0.8"/>
      </defs>
      <g>
       <use xlink:href="#m3c575774f3" x="85.896459" y="284.4" style="stroke: #000000; stroke-width: 0.8"/>
      </g>
     </g>
     <g id="text_1">
      <!-- $\mathit{dD}_в$/$\mathit{D}_в$ -->
      <g transform="translate(65.106459 301.2) scale(0.14 -0.14)">
       <defs>
        <path id="STIXGeneral-Italic-64" d="M 3334 4371 
L 3373 4333 
L 3123 3360 
L 2739 1958 
Q 2323 429 2323 384 
Q 2323 256 2438 256 
Q 2522 256 2614 336 
Q 2707 416 2963 710 
L 3040 646 
Q 2547 -83 2099 -83 
Q 1978 -83 1907 -6 
Q 1837 70 1837 205 
Q 1837 397 1920 774 
Q 1645 307 1379 118 
Q 1114 -70 781 -70 
Q 461 -70 278 125 
Q 96 320 96 678 
Q 96 1440 713 2131 
Q 1331 2822 1965 2822 
Q 2163 2822 2256 2732 
Q 2349 2643 2381 2451 
L 2387 2451 
L 2675 3494 
Q 2765 3808 2765 3949 
Q 2765 4051 2694 4076 
Q 2624 4102 2355 4115 
L 2355 4224 
Q 2848 4269 3334 4371 
z
M 2278 2310 
Q 2278 2477 2185 2576 
Q 2093 2675 1978 2675 
Q 1677 2675 1395 2381 
Q 1075 2042 864 1571 
Q 653 1101 653 704 
Q 653 486 752 361 
Q 851 237 1024 237 
Q 1312 237 1606 550 
Q 1901 864 2089 1350 
Q 2278 1837 2278 2310 
z
" transform="scale(0.015625)"/>
        <path id="STIXGeneral-Italic-44" d="M 838 4179 
L 2611 4179 
Q 3469 4179 3974 3731 
Q 4480 3283 4480 2458 
Q 4480 1325 3456 531 
Q 2778 0 1594 0 
L -51 0 
L -51 102 
Q 224 154 310 230 
Q 397 307 474 589 
L 1254 3437 
Q 1325 3686 1325 3814 
Q 1325 3949 1222 4009 
Q 1120 4070 838 4077 
L 838 4179 
z
M 1984 3738 
L 1229 1037 
Q 1088 525 1088 429 
Q 1088 192 1523 192 
Q 2470 192 3066 768 
Q 3398 1088 3584 1597 
Q 3770 2106 3770 2611 
Q 3770 3386 3270 3763 
Q 2970 3987 2432 3987 
Q 2227 3987 2128 3939 
Q 2029 3891 1984 3738 
z
" transform="scale(0.015625)"/>
        <path id="TimesNewRomanPSMT-432" d="M 2016 1513 
Q 2800 1350 2800 778 
Q 2800 388 2473 194 
Q 2147 0 1563 0 
L 150 0 
L 150 116 
Q 428 116 501 220 
Q 575 325 575 672 
L 575 2191 
Q 575 2528 542 2587 
Q 509 2647 439 2695 
Q 369 2744 150 2744 
L 150 2863 
L 1469 2863 
Q 1850 2863 2086 2803 
Q 2322 2744 2473 2569 
Q 2625 2394 2625 2144 
Q 2625 1656 2016 1513 
z
M 1094 1584 
Q 1231 1581 1259 1581 
Q 1688 1581 1878 1745 
Q 2069 1909 2069 2144 
Q 2069 2416 1875 2537 
Q 1681 2659 1256 2659 
L 1094 2659 
L 1094 1584 
z
M 1094 253 
Q 1250 203 1466 203 
Q 1838 203 2019 365 
Q 2200 528 2200 784 
Q 2200 1072 1965 1225 
Q 1731 1378 1316 1378 
Q 1213 1378 1094 1372 
L 1094 253 
z
" transform="scale(0.015625)"/>
        <path id="TimesNewRomanPSMT-2f" d="M 1794 4444 
L 259 -88 
L 9 -88 
L 1544 4444 
L 1794 4444 
z
" transform="scale(0.015625)"/>
       </defs>
       <use xlink:href="#STIXGeneral-Italic-64" transform="translate(0 0.5625)"/>
       <use xlink:href="#STIXGeneral-Italic-44" transform="translate(49.999985 0.5625)"/>
       <use xlink:href="#TimesNewRomanPSMT-432" transform="translate(122.199966 -25.2) scale(0.7)"/>
       <use xlink:href="#TimesNewRomanPSMT-2f" transform="translate(159.545474 0.5625)"/>
       <use xlink:href="#STIXGeneral-Italic-44" transform="translate(187.328677 0.5625)"/>
       <use xlink:href="#TimesNewRomanPSMT-432" transform="translate(259.528659 -25.2) scale(0.7)"/>
      </g>
     </g>
    </g>
    <g id="xtick_2">
     <g id="line2d_2">
      <g>
       <use xlink:href="#m3c575774f3" x="165.992153" y="284.4" style="stroke: #000000; stroke-width: 0.8"/>
      </g>
     </g>
     <g id="text_2">
      <!-- $\mathit{dL}_{зар}$/$\mathit{L}_{зар}$ -->
      <g transform="translate(138.972153 301.2) scale(0.14 -0.14)">
       <defs>
        <path id="STIXGeneral-Italic-4c" d="M 3578 1152 
L 3206 0 
L -51 0 
L -51 102 
Q 218 128 301 211 
Q 384 294 474 602 
L 1254 3405 
Q 1325 3642 1325 3802 
Q 1325 3942 1225 4000 
Q 1126 4058 832 4077 
L 832 4179 
L 2579 4179 
L 2579 4077 
Q 2285 4058 2147 3955 
Q 2010 3853 1933 3584 
L 1165 838 
Q 1101 595 1101 493 
Q 1101 346 1241 288 
Q 1382 230 1773 230 
Q 2266 230 2480 275 
Q 2694 320 2925 474 
Q 3187 646 3450 1190 
L 3578 1152 
z
" transform="scale(0.015625)"/>
        <path id="TimesNewRomanPSMT-437" d="M 263 1966 
L 263 2863 
L 394 2863 
Q 450 2813 519 2813 
Q 572 2813 750 2863 
Q 1047 2947 1234 2947 
Q 1647 2947 1923 2756 
Q 2200 2566 2200 2250 
Q 2200 1766 1466 1547 
Q 2322 1369 2322 744 
Q 2322 416 2047 164 
Q 1772 -88 1247 -88 
Q 903 -88 642 35 
Q 381 159 75 453 
L 156 534 
Q 669 138 1128 138 
Q 1391 138 1559 316 
Q 1728 494 1728 778 
Q 1728 1400 925 1438 
L 925 1619 
Q 1303 1619 1473 1820 
Q 1644 2022 1644 2253 
Q 1644 2456 1498 2609 
Q 1353 2763 1113 2763 
Q 556 2763 375 1966 
L 263 1966 
z
" transform="scale(0.015625)"/>
        <path id="TimesNewRomanPSMT-430" d="M 1822 413 
Q 1381 72 1269 19 
Q 1100 -59 909 -59 
Q 613 -59 420 144 
Q 228 347 228 678 
Q 228 888 322 1041 
Q 450 1253 767 1440 
Q 1084 1628 1822 1897 
L 1822 2009 
Q 1822 2438 1686 2597 
Q 1550 2756 1291 2756 
Q 1094 2756 978 2650 
Q 859 2544 859 2406 
L 866 2225 
Q 866 2081 792 2003 
Q 719 1925 600 1925 
Q 484 1925 411 2006 
Q 338 2088 338 2228 
Q 338 2497 613 2722 
Q 888 2947 1384 2947 
Q 1766 2947 2009 2819 
Q 2194 2722 2281 2516 
Q 2338 2381 2338 1966 
L 2338 994 
Q 2338 584 2353 492 
Q 2369 400 2405 369 
Q 2441 338 2488 338 
Q 2538 338 2575 359 
Q 2641 400 2828 588 
L 2828 413 
Q 2478 -56 2159 -56 
Q 2006 -56 1915 50 
Q 1825 156 1822 413 
z
M 1822 616 
L 1822 1706 
Q 1350 1519 1213 1441 
Q 966 1303 859 1153 
Q 753 1003 753 825 
Q 753 600 887 451 
Q 1022 303 1197 303 
Q 1434 303 1822 616 
z
" transform="scale(0.015625)"/>
        <path id="TimesNewRomanPSMT-440" d="M -6 2578 
L 875 2934 
L 994 2934 
L 994 2266 
Q 1216 2644 1439 2795 
Q 1663 2947 1909 2947 
Q 2341 2947 2628 2609 
Q 2981 2197 2981 1534 
Q 2981 794 2556 309 
Q 2206 -88 1675 -88 
Q 1444 -88 1275 -22 
Q 1150 25 994 166 
L 994 -706 
Q 994 -1000 1030 -1079 
Q 1066 -1159 1155 -1206 
Q 1244 -1253 1478 -1253 
L 1478 -1369 
L -22 -1369 
L -22 -1253 
L 56 -1253 
Q 228 -1256 350 -1188 
Q 409 -1153 442 -1076 
Q 475 -1000 475 -688 
L 475 2019 
Q 475 2297 450 2372 
Q 425 2447 370 2484 
Q 316 2522 222 2522 
Q 147 2522 31 2478 
L -6 2578 
z
M 994 2081 
L 994 1013 
Q 994 666 1022 556 
Q 1066 375 1236 237 
Q 1406 100 1666 100 
Q 1978 100 2172 344 
Q 2425 663 2425 1241 
Q 2425 1897 2138 2250 
Q 1938 2494 1663 2494 
Q 1513 2494 1366 2419 
Q 1253 2363 994 2081 
z
" transform="scale(0.015625)"/>
       </defs>
       <use xlink:href="#STIXGeneral-Italic-64" transform="translate(0 0.5625)"/>
       <use xlink:href="#STIXGeneral-Italic-4c" transform="translate(49.999985 0.5625)"/>
       <use xlink:href="#TimesNewRomanPSMT-437" transform="translate(105.599976 -25.2) scale(0.7)"/>
       <use xlink:href="#TimesNewRomanPSMT-430" transform="translate(133.251343 -25.2) scale(0.7)"/>
       <use xlink:href="#TimesNewRomanPSMT-440" transform="translate(164.320679 -25.2) scale(0.7)"/>
       <use xlink:href="#TimesNewRomanPSMT-2f" transform="translate(203.614429 0.5625)"/>
       <use xlink:href="#STIXGeneral-Italic-4c" transform="translate(231.397632 0.5625)"/>
       <use xlink:href="#TimesNewRomanPSMT-437" transform="translate(286.997623 -25.2) scale(0.7)"/>
       <use xlink:href="#TimesNewRomanPSMT-430" transform="translate(314.64899 -25.2) scale(0.7)"/>
       <use xlink:href="#TimesNewRomanPSMT-440" transform="translate(345.718326 -25.2) scale(0.7)"/>
      </g>
     </g>
    </g>
    <g id="xtick_3">
     <g id="line2d_3">
      <g>
       <use xlink:href="#m3c575774f3" x="246.087847" y="284.4" style="stroke: #000000; stroke-width: 0.8"/>
      </g>
     </g>
     <g id="text_3">
      <!-- $\mathit{d}\theta$/$\theta$ -->
      <g transform="translate(233.907847 301.12125) scale(0.14 -0.14)">
       <defs>
        <path id="TimesNewRomanPSMT-3b8" d="M 1563 4438 
Q 2091 4438 2453 3820 
Q 2816 3203 2816 2213 
Q 2816 1144 2425 528 
Q 2034 -88 1522 -88 
Q 1019 -88 636 510 
Q 253 1109 253 2134 
Q 253 3163 633 3800 
Q 1013 4438 1563 4438 
z
M 2234 2281 
Q 2234 4256 1541 4256 
Q 828 4256 828 2281 
L 2234 2281 
z
M 828 2088 
Q 828 1066 1018 580 
Q 1209 94 1531 94 
Q 2228 94 2234 2088 
L 828 2088 
z
" transform="scale(0.015625)"/>
       </defs>
       <use xlink:href="#STIXGeneral-Italic-64" transform="translate(0 0.5625)"/>
       <use xlink:href="#TimesNewRomanPSMT-3b8" transform="translate(49.999985 0.5625)"/>
       <use xlink:href="#TimesNewRomanPSMT-2f" transform="translate(97.900375 0.5625)"/>
       <use xlink:href="#TimesNewRomanPSMT-3b8" transform="translate(125.683578 0.5625)"/>
      </g>
     </g>
    </g>
    <g id="xtick_4">
     <g id="line2d_4">
      <g>
       <use xlink:href="#m3c575774f3" x="326.183541" y="284.4" style="stroke: #000000; stroke-width: 0.8"/>
      </g>
     </g>
     <g id="text_4">
      <!-- $\mathit{dr}$/$\mathit{r}$ -->
      <g transform="translate(315.263541 301.12125) scale(0.14 -0.14)">
       <defs>
        <path id="STIXGeneral-Italic-72" d="M 1126 1427 
L 1229 1651 
Q 1446 2131 1830 2534 
Q 2106 2822 2336 2822 
Q 2470 2822 2553 2732 
Q 2637 2643 2637 2496 
Q 2637 2349 2557 2249 
Q 2477 2150 2336 2150 
Q 2214 2150 2112 2317 
Q 2061 2406 2010 2406 
Q 1837 2406 1485 1805 
Q 1267 1434 1136 1104 
Q 1005 774 774 0 
L 288 0 
L 806 1869 
Q 909 2246 909 2394 
Q 909 2560 666 2560 
Q 614 2560 467 2541 
L 467 2650 
L 1459 2822 
L 1478 2810 
L 1126 1427 
z
" transform="scale(0.015625)"/>
       </defs>
       <use xlink:href="#STIXGeneral-Italic-64" transform="translate(0 0.5625)"/>
       <use xlink:href="#STIXGeneral-Italic-72" transform="translate(49.999985 0.5625)"/>
       <use xlink:href="#TimesNewRomanPSMT-2f" transform="translate(88.899979 0.5625)"/>
       <use xlink:href="#STIXGeneral-Italic-72" transform="translate(116.683182 0.5625)"/>
      </g>
     </g>
    </g>
   </g>
   <g id="matplotlib.axis_2">
    <g id="ytick_1">
     <g id="line2d_5">
      <path d="M 38.64 239.690323 
L 373.44 239.690323 
" clip-path="url(#p38d7aecb9f)" style="fill: none; stroke: #b0b0b0; stroke-width: 0.8; stroke-linecap: square"/>
     </g>
     <g id="line2d_6">
      <defs>
       <path id="m205ba58018" d="M 0 0 
L -3.5 0 
" style="stroke: #000000; stroke-width: 0.8"/>
      </defs>
      <g>
       <use xlink:href="#m205ba58018" x="38.64" y="239.690323" style="stroke: #000000; stroke-width: 0.8"/>
      </g>
     </g>
     <g id="text_5">
      <!-- 0 -->
      <g transform="translate(24.64 244.550948) scale(0.14 -0.14)">
       <defs>
        <path id="TimesNewRomanPSMT-30" d="M 231 2094 
Q 231 2819 450 3342 
Q 669 3866 1031 4122 
Q 1313 4325 1613 4325 
Q 2100 4325 2488 3828 
Q 2972 3213 2972 2159 
Q 2972 1422 2759 906 
Q 2547 391 2217 158 
Q 1888 -75 1581 -75 
Q 975 -75 572 641 
Q 231 1244 231 2094 
z
M 844 2016 
Q 844 1141 1059 588 
Q 1238 122 1591 122 
Q 1759 122 1940 273 
Q 2122 425 2216 781 
Q 2359 1319 2359 2297 
Q 2359 3022 2209 3506 
Q 2097 3866 1919 4016 
Q 1791 4119 1609 4119 
Q 1397 4119 1231 3928 
Q 1006 3669 925 3112 
Q 844 2556 844 2016 
z
" transform="scale(0.015625)"/>
       </defs>
       <use xlink:href="#TimesNewRomanPSMT-30"/>
      </g>
     </g>
    </g>
    <g id="ytick_2">
     <g id="line2d_7">
      <path d="M 38.64 180.077419 
L 373.44 180.077419 
" clip-path="url(#p38d7aecb9f)" style="fill: none; stroke: #b0b0b0; stroke-width: 0.8; stroke-linecap: square"/>
     </g>
     <g id="line2d_8">
      <g>
       <use xlink:href="#m205ba58018" x="38.64" y="180.077419" style="stroke: #000000; stroke-width: 0.8"/>
      </g>
     </g>
     <g id="text_6">
      <!-- 2 -->
      <g transform="translate(24.64 184.938044) scale(0.14 -0.14)">
       <defs>
        <path id="TimesNewRomanPSMT-32" d="M 2934 816 
L 2638 0 
L 138 0 
L 138 116 
Q 1241 1122 1691 1759 
Q 2141 2397 2141 2925 
Q 2141 3328 1894 3587 
Q 1647 3847 1303 3847 
Q 991 3847 742 3664 
Q 494 3481 375 3128 
L 259 3128 
Q 338 3706 661 4015 
Q 984 4325 1469 4325 
Q 1984 4325 2329 3994 
Q 2675 3663 2675 3213 
Q 2675 2891 2525 2569 
Q 2294 2063 1775 1497 
Q 997 647 803 472 
L 1909 472 
Q 2247 472 2383 497 
Q 2519 522 2628 598 
Q 2738 675 2819 816 
L 2934 816 
z
" transform="scale(0.015625)"/>
       </defs>
       <use xlink:href="#TimesNewRomanPSMT-32"/>
      </g>
     </g>
    </g>
    <g id="ytick_3">
     <g id="line2d_9">
      <path d="M 38.64 120.464516 
L 373.44 120.464516 
" clip-path="url(#p38d7aecb9f)" style="fill: none; stroke: #b0b0b0; stroke-width: 0.8; stroke-linecap: square"/>
     </g>
     <g id="line2d_10">
      <g>
       <use xlink:href="#m205ba58018" x="38.64" y="120.464516" style="stroke: #000000; stroke-width: 0.8"/>
      </g>
     </g>
     <g id="text_7">
      <!-- 4 -->
      <g transform="translate(24.64 125.325141) scale(0.14 -0.14)">
       <defs>
        <path id="TimesNewRomanPSMT-34" d="M 2978 1563 
L 2978 1119 
L 2409 1119 
L 2409 0 
L 1894 0 
L 1894 1119 
L 100 1119 
L 100 1519 
L 2066 4325 
L 2409 4325 
L 2409 1563 
L 2978 1563 
z
M 1894 1563 
L 1894 3666 
L 406 1563 
L 1894 1563 
z
" transform="scale(0.015625)"/>
       </defs>
       <use xlink:href="#TimesNewRomanPSMT-34"/>
      </g>
     </g>
    </g>
    <g id="ytick_4">
     <g id="line2d_11">
      <path d="M 38.64 60.851613 
L 373.44 60.851613 
" clip-path="url(#p38d7aecb9f)" style="fill: none; stroke: #b0b0b0; stroke-width: 0.8; stroke-linecap: square"/>
     </g>
     <g id="line2d_12">
      <g>
       <use xlink:href="#m205ba58018" x="38.64" y="60.851613" style="stroke: #000000; stroke-width: 0.8"/>
      </g>
     </g>
     <g id="text_8">
      <!-- 6 -->
      <g transform="translate(24.64 65.712238) scale(0.14 -0.14)">
       <defs>
        <path id="TimesNewRomanPSMT-36" d="M 2869 4325 
L 2869 4209 
Q 2456 4169 2195 4045 
Q 1934 3922 1679 3669 
Q 1425 3416 1258 3105 
Q 1091 2794 978 2366 
Q 1428 2675 1881 2675 
Q 2316 2675 2634 2325 
Q 2953 1975 2953 1425 
Q 2953 894 2631 456 
Q 2244 -75 1606 -75 
Q 1172 -75 869 213 
Q 275 772 275 1663 
Q 275 2231 503 2743 
Q 731 3256 1154 3653 
Q 1578 4050 1965 4187 
Q 2353 4325 2688 4325 
L 2869 4325 
z
M 925 2138 
Q 869 1716 869 1456 
Q 869 1156 980 804 
Q 1091 453 1309 247 
Q 1469 100 1697 100 
Q 1969 100 2183 356 
Q 2397 613 2397 1088 
Q 2397 1622 2184 2012 
Q 1972 2403 1581 2403 
Q 1463 2403 1327 2353 
Q 1191 2303 925 2138 
z
" transform="scale(0.015625)"/>
       </defs>
       <use xlink:href="#TimesNewRomanPSMT-36"/>
      </g>
     </g>
    </g>
    <g id="text_9">
     <!-- Коэффициент влияния на $\mathit{S}_г$ и $\mathit{P}$ -->
     <g transform="translate(17 241.14) rotate(-90) scale(0.14 -0.14)">
      <defs>
       <path id="TimesNewRomanPSMT-41a" d="M 4247 116 
L 4247 0 
L 3153 0 
Q 2975 284 2403 1073 
Q 1831 1863 1706 1948 
Q 1581 2034 1328 2038 
L 1328 772 
Q 1328 353 1436 240 
Q 1544 128 1941 116 
L 1941 0 
L 116 0 
L 116 116 
Q 506 128 617 239 
Q 728 350 728 772 
L 728 3466 
Q 728 3884 618 3996 
Q 509 4109 116 4122 
L 116 4238 
L 1941 4238 
L 1941 4122 
Q 1544 4109 1436 3996 
Q 1328 3884 1328 3466 
L 1328 2284 
Q 1669 2288 1800 2330 
Q 1931 2372 2095 2522 
Q 2259 2672 2354 2845 
Q 2450 3019 2600 3416 
Q 2741 3788 2830 3933 
Q 2919 4078 3116 4183 
Q 3313 4288 3584 4288 
Q 4066 4288 4066 3950 
Q 4066 3831 3970 3743 
Q 3875 3656 3753 3656 
Q 3666 3656 3459 3756 
Q 3278 3847 3206 3847 
Q 3106 3847 3034 3742 
Q 2963 3638 2806 3209 
Q 2506 2409 2041 2194 
Q 2325 2144 2828 1416 
Q 3363 644 3613 384 
Q 3863 125 4247 116 
z
" transform="scale(0.015625)"/>
       <path id="TimesNewRomanPSMT-43e" d="M 1600 2947 
Q 2250 2947 2644 2453 
Q 2978 2031 2978 1484 
Q 2978 1100 2793 706 
Q 2609 313 2286 112 
Q 1963 -88 1566 -88 
Q 919 -88 538 428 
Q 216 863 216 1403 
Q 216 1797 411 2186 
Q 606 2575 925 2761 
Q 1244 2947 1600 2947 
z
M 1503 2744 
Q 1338 2744 1170 2645 
Q 1003 2547 900 2300 
Q 797 2053 797 1666 
Q 797 1041 1045 587 
Q 1294 134 1700 134 
Q 2003 134 2200 384 
Q 2397 634 2397 1244 
Q 2397 2006 2069 2444 
Q 1847 2744 1503 2744 
z
" transform="scale(0.015625)"/>
       <path id="TimesNewRomanPSMT-44d" d="M 281 1972 
L 400 1972 
Q 438 2300 631 2522 
Q 825 2744 1119 2744 
Q 1434 2744 1646 2442 
Q 1859 2141 1919 1625 
L 991 1625 
L 991 1422 
L 1941 1422 
L 1941 1269 
Q 1941 647 1694 376 
Q 1447 106 1078 106 
Q 544 106 191 609 
L 84 547 
Q 519 -88 1141 -88 
Q 1753 -88 2140 370 
Q 2528 828 2528 1469 
Q 2528 2125 2131 2536 
Q 1734 2947 1241 2947 
Q 1047 2947 756 2856 
Q 581 2803 531 2803 
Q 466 2803 400 2863 
L 281 2863 
L 281 1972 
z
" transform="scale(0.015625)"/>
       <path id="TimesNewRomanPSMT-444" d="M 1334 4091 
L 2178 4444 
L 2316 4444 
L 2316 2684 
Q 2600 2947 2894 2947 
Q 3297 2947 3586 2503 
Q 3875 2059 3875 1428 
Q 3875 809 3581 360 
Q 3288 -88 2869 -88 
Q 2559 -88 2316 188 
L 2316 -697 
Q 2316 -1009 2352 -1095 
Q 2388 -1181 2481 -1217 
Q 2575 -1253 2875 -1253 
L 2875 -1369 
L 1334 -1369 
L 1334 -1253 
Q 1647 -1253 1739 -1164 
Q 1831 -1075 1831 -697 
L 1831 188 
Q 1597 -88 1281 -88 
Q 847 -88 559 362 
Q 272 813 272 1459 
Q 272 2044 547 2495 
Q 822 2947 1266 2947 
Q 1594 2947 1831 2647 
L 1831 3422 
Q 1831 3822 1781 3931 
Q 1731 4041 1606 4041 
Q 1503 4041 1381 3988 
L 1334 4091 
z
M 1831 2369 
Q 1656 2738 1381 2738 
Q 1116 2738 967 2389 
Q 819 2041 819 1353 
Q 819 747 967 436 
Q 1116 125 1381 125 
Q 1625 125 1831 409 
L 1831 2369 
z
M 2316 463 
Q 2378 300 2512 212 
Q 2647 125 2769 125 
Q 3009 125 3164 428 
Q 3319 731 3319 1375 
Q 3319 2738 2778 2738 
Q 2550 2738 2316 2484 
L 2316 463 
z
" transform="scale(0.015625)"/>
       <path id="TimesNewRomanPSMT-438" d="M 1094 881 
L 2331 2313 
Q 2325 2553 2240 2647 
Q 2156 2741 1950 2744 
L 1950 2863 
L 3281 2863 
L 3281 2744 
Q 3072 2744 3000 2701 
Q 2928 2659 2887 2596 
Q 2847 2534 2847 2191 
L 2847 672 
Q 2847 341 2881 277 
Q 2916 213 2989 164 
Q 3063 116 3281 116 
L 3281 0 
L 1897 0 
L 1897 116 
Q 2156 116 2243 211 
Q 2331 306 2331 672 
L 2331 2019 
L 1094 584 
Q 1100 319 1169 219 
Q 1238 119 1466 116 
L 1466 0 
L 144 0 
L 144 116 
Q 422 116 500 217 
Q 578 319 578 672 
L 578 2191 
Q 578 2525 543 2586 
Q 509 2647 437 2695 
Q 366 2744 144 2744 
L 144 2863 
L 1528 2863 
L 1528 2744 
Q 1319 2744 1247 2701 
Q 1175 2659 1134 2596 
Q 1094 2534 1094 2191 
L 1094 881 
z
" transform="scale(0.015625)"/>
       <path id="TimesNewRomanPSMT-446" d="M 3281 116 
L 3281 -794 
L 3166 -794 
Q 3156 -428 2926 -214 
Q 2697 0 2094 0 
L 144 0 
L 144 116 
Q 422 116 500 217 
Q 578 319 578 672 
L 578 2191 
Q 578 2525 543 2586 
Q 509 2647 437 2695 
Q 366 2744 144 2744 
L 144 2863 
L 1528 2863 
L 1528 2744 
Q 1319 2744 1247 2701 
Q 1175 2659 1134 2596 
Q 1094 2534 1094 2191 
L 1094 575 
Q 1094 303 1142 253 
Q 1191 203 1453 203 
L 1959 203 
Q 2250 203 2290 256 
Q 2331 309 2331 600 
L 2331 2191 
Q 2331 2488 2300 2573 
Q 2269 2659 2178 2701 
Q 2088 2744 1897 2744 
L 1897 2863 
L 3281 2863 
L 3281 2744 
Q 3072 2744 3000 2701 
Q 2928 2659 2887 2596 
Q 2847 2534 2847 2191 
L 2847 719 
Q 2847 316 2919 222 
Q 2991 128 3281 116 
z
" transform="scale(0.015625)"/>
       <path id="TimesNewRomanPSMT-435" d="M 681 1784 
Q 678 1147 991 784 
Q 1303 422 1725 422 
Q 2006 422 2214 576 
Q 2422 731 2563 1106 
L 2659 1044 
Q 2594 616 2278 264 
Q 1963 -88 1488 -88 
Q 972 -88 605 314 
Q 238 716 238 1394 
Q 238 2128 614 2539 
Q 991 2950 1559 2950 
Q 2041 2950 2350 2633 
Q 2659 2316 2659 1784 
L 681 1784 
z
M 681 1966 
L 2006 1966 
Q 1991 2241 1941 2353 
Q 1863 2528 1708 2628 
Q 1553 2728 1384 2728 
Q 1125 2728 920 2526 
Q 716 2325 681 1966 
z
" transform="scale(0.015625)"/>
       <path id="TimesNewRomanPSMT-43d" d="M 1094 1584 
L 2331 1584 
L 2331 2191 
Q 2331 2463 2309 2545 
Q 2288 2628 2202 2686 
Q 2116 2744 1897 2744 
L 1897 2863 
L 3281 2863 
L 3281 2744 
Q 3088 2744 2998 2700 
Q 2909 2656 2878 2573 
Q 2847 2491 2847 2191 
L 2847 672 
Q 2847 400 2870 312 
Q 2894 225 2984 170 
Q 3075 116 3281 116 
L 3281 0 
L 1897 0 
L 1897 116 
Q 2156 116 2243 211 
Q 2331 306 2331 672 
L 2331 1381 
L 1094 1381 
L 1094 672 
Q 1094 400 1117 312 
Q 1141 225 1231 170 
Q 1322 116 1528 116 
L 1528 0 
L 144 0 
L 144 116 
Q 422 116 500 217 
Q 578 319 578 672 
L 578 2191 
Q 578 2463 554 2550 
Q 531 2638 440 2691 
Q 350 2744 144 2744 
L 144 2863 
L 1528 2863 
L 1528 2744 
Q 1334 2744 1245 2700 
Q 1156 2656 1125 2573 
Q 1094 2491 1094 2191 
L 1094 1584 
z
" transform="scale(0.015625)"/>
       <path id="TimesNewRomanPSMT-442" d="M 156 2863 
L 2631 2863 
L 2756 2088 
L 2616 2088 
Q 2578 2322 2490 2450 
Q 2403 2578 2290 2618 
Q 2178 2659 1906 2659 
L 1656 2659 
L 1656 672 
Q 1656 353 1695 267 
Q 1734 181 1821 153 
Q 1909 125 2222 116 
L 2222 0 
L 666 0 
L 666 116 
Q 966 122 1052 212 
Q 1138 303 1138 672 
L 1138 2659 
L 881 2659 
Q 613 2659 516 2626 
Q 419 2594 330 2470 
Q 241 2347 178 2088 
L 38 2088 
L 156 2863 
z
" transform="scale(0.015625)"/>
       <path id="TimesNewRomanPSMT-20" transform="scale(0.015625)"/>
       <path id="TimesNewRomanPSMT-43b" d="M 494 2863 
L 3053 2863 
L 3053 2744 
Q 2841 2744 2770 2701 
Q 2700 2659 2659 2596 
Q 2619 2534 2619 2191 
L 2619 672 
Q 2619 341 2653 277 
Q 2688 213 2761 164 
Q 2834 116 3053 116 
L 3053 0 
L 1572 0 
L 1572 116 
Q 1813 116 1905 141 
Q 1997 166 2050 261 
Q 2103 356 2103 672 
L 2103 2659 
L 1150 2659 
L 1150 1453 
Q 1150 769 1089 492 
Q 1028 216 848 83 
Q 669 -50 438 -50 
Q 38 -50 38 281 
Q 38 394 102 466 
Q 166 538 269 538 
Q 378 538 472 447 
Q 594 328 656 328 
Q 797 328 861 564 
Q 925 800 925 1391 
L 925 2022 
Q 925 2509 854 2615 
Q 784 2722 494 2744 
L 494 2863 
z
" transform="scale(0.015625)"/>
       <path id="TimesNewRomanPSMT-44f" d="M 2800 2863 
L 2800 2744 
Q 2606 2744 2514 2691 
Q 2422 2638 2394 2556 
Q 2366 2475 2366 2191 
L 2366 672 
Q 2366 400 2391 314 
Q 2416 228 2511 172 
Q 2606 116 2800 116 
L 2800 0 
L 1416 0 
L 1416 116 
Q 1675 116 1762 211 
Q 1850 306 1850 672 
L 1850 1294 
L 1722 1291 
Q 1694 1291 1622 1294 
L 709 0 
L -3 0 
L -3 116 
Q 153 116 214 158 
Q 275 200 441 434 
L 1109 1378 
Q 391 1628 391 2144 
Q 391 2434 648 2648 
Q 906 2863 1528 2863 
L 2800 2863 
z
M 1850 2625 
Q 1728 2659 1619 2659 
Q 1303 2659 1147 2503 
Q 991 2347 991 2131 
Q 991 1856 1212 1675 
Q 1434 1494 1772 1494 
Q 1806 1494 1850 1500 
L 1850 2625 
z
" transform="scale(0.015625)"/>
       <path id="STIXGeneral-Italic-53" d="M 3251 4269 
L 2995 2989 
L 2880 3008 
Q 2880 3539 2720 3795 
Q 2560 4051 2118 4051 
Q 1786 4051 1594 3881 
Q 1402 3712 1402 3411 
Q 1402 3168 1504 3005 
Q 1606 2842 2035 2413 
Q 2464 1978 2611 1715 
Q 2758 1453 2758 1133 
Q 2758 589 2390 237 
Q 2022 -115 1466 -115 
Q 1222 -115 800 32 
Q 595 109 499 109 
Q 288 109 224 -96 
L 109 -96 
L 326 1338 
L 454 1325 
Q 442 1267 442 1178 
Q 442 710 701 409 
Q 960 109 1363 109 
Q 1734 109 1968 336 
Q 2202 563 2202 928 
Q 2202 1139 2118 1308 
Q 2035 1478 1818 1715 
L 1568 1984 
Q 1549 2003 1459 2102 
Q 1370 2202 1318 2253 
Q 1030 2560 934 2755 
Q 838 2950 838 3213 
Q 838 3699 1168 3980 
Q 1498 4262 1978 4262 
Q 2310 4262 2522 4173 
Q 2707 4102 2816 4102 
Q 2925 4102 2982 4134 
Q 3040 4166 3104 4269 
L 3251 4269 
z
" transform="scale(0.015625)"/>
       <path id="TimesNewRomanPSMT-433" d="M 2469 2863 
L 2584 2081 
L 2447 2081 
Q 2328 2469 2208 2564 
Q 2088 2659 1700 2659 
L 1094 2659 
L 1094 672 
Q 1094 341 1128 277 
Q 1163 213 1236 164 
Q 1309 116 1528 116 
L 1528 0 
L 97 0 
L 97 116 
Q 403 122 490 211 
Q 578 300 578 672 
L 578 2191 
Q 578 2494 543 2580 
Q 509 2666 423 2703 
Q 338 2741 97 2744 
L 97 2863 
L 2469 2863 
z
" transform="scale(0.015625)"/>
       <path id="STIXGeneral-Italic-50" d="M 934 4179 
L 2477 4179 
Q 3872 4179 3872 3232 
Q 3872 2976 3753 2729 
Q 3635 2483 3437 2317 
Q 2995 1952 2125 1952 
Q 1773 1952 1549 2003 
L 1210 768 
Q 1120 422 1120 365 
Q 1120 250 1216 189 
Q 1312 128 1562 102 
L 1562 0 
L 0 0 
L 0 102 
Q 275 141 361 227 
Q 448 314 538 627 
L 1280 3277 
Q 1389 3667 1389 3808 
Q 1389 3936 1299 3990 
Q 1210 4045 934 4077 
L 934 4179 
z
M 2048 3789 
L 1606 2221 
Q 1792 2189 1939 2189 
Q 2496 2189 2758 2342 
Q 3213 2598 3213 3200 
Q 3213 3987 2381 3987 
Q 2099 3987 2048 3789 
z
" transform="scale(0.015625)"/>
      </defs>
      <use xlink:href="#TimesNewRomanPSMT-41a" transform="translate(0 0.5625)"/>
      <use xlink:href="#TimesNewRomanPSMT-43e" transform="translate(66.699219 0.5625)"/>
      <use xlink:href="#TimesNewRomanPSMT-44d" transform="translate(116.699219 0.5625)"/>
      <use xlink:href="#TimesNewRomanPSMT-444" transform="translate(159.619141 0.5625)"/>
      <use xlink:href="#TimesNewRomanPSMT-444" transform="translate(224.414062 0.5625)"/>
      <use xlink:href="#TimesNewRomanPSMT-438" transform="translate(289.208984 0.5625)"/>
      <use xlink:href="#TimesNewRomanPSMT-446" transform="translate(342.724609 0.5625)"/>
      <use xlink:href="#TimesNewRomanPSMT-438" transform="translate(396.240234 0.5625)"/>
      <use xlink:href="#TimesNewRomanPSMT-435" transform="translate(449.755859 0.5625)"/>
      <use xlink:href="#TimesNewRomanPSMT-43d" transform="translate(494.140625 0.5625)"/>
      <use xlink:href="#TimesNewRomanPSMT-442" transform="translate(547.65625 0.5625)"/>
      <use xlink:href="#TimesNewRomanPSMT-20" transform="translate(591.357422 0.5625)"/>
      <use xlink:href="#TimesNewRomanPSMT-432" transform="translate(616.357422 0.5625)"/>
      <use xlink:href="#TimesNewRomanPSMT-43b" transform="translate(663.574219 0.5625)"/>
      <use xlink:href="#TimesNewRomanPSMT-438" transform="translate(713.476562 0.5625)"/>
      <use xlink:href="#TimesNewRomanPSMT-44f" transform="translate(766.992188 0.5625)"/>
      <use xlink:href="#TimesNewRomanPSMT-43d" transform="translate(812.988281 0.5625)"/>
      <use xlink:href="#TimesNewRomanPSMT-438" transform="translate(866.503906 0.5625)"/>
      <use xlink:href="#TimesNewRomanPSMT-44f" transform="translate(920.019531 0.5625)"/>
      <use xlink:href="#TimesNewRomanPSMT-20" transform="translate(966.015625 0.5625)"/>
      <use xlink:href="#TimesNewRomanPSMT-43d" transform="translate(991.015625 0.5625)"/>
      <use xlink:href="#TimesNewRomanPSMT-430" transform="translate(1044.53125 0.5625)"/>
      <use xlink:href="#TimesNewRomanPSMT-20" transform="translate(1088.916016 0.5625)"/>
      <use xlink:href="#STIXGeneral-Italic-53" transform="translate(1113.916016 0.5625)"/>
      <use xlink:href="#TimesNewRomanPSMT-433" transform="translate(1163.916 -25.2) scale(0.7)"/>
      <use xlink:href="#TimesNewRomanPSMT-20" transform="translate(1196.920688 0.5625)"/>
      <use xlink:href="#TimesNewRomanPSMT-438" transform="translate(1221.920688 0.5625)"/>
      <use xlink:href="#TimesNewRomanPSMT-20" transform="translate(1275.436313 0.5625)"/>
      <use xlink:href="#STIXGeneral-Italic-50" transform="translate(1300.436313 0.5625)"/>
     </g>
    </g>
   </g>
   <g id="patch_3">
    <path d="M 53.858182 239.690323 
L 85.896459 239.690323 
L 85.896459 177.990968 
L 53.858182 177.990968 
z
" clip-path="url(#p38d7aecb9f)" style="fill: #1f77b4; opacity: 0.9"/>
   </g>
   <g id="patch_4">
    <path d="M 133.953876 239.690323 
L 165.992153 239.690323 
L 165.992153 209.883871 
L 133.953876 209.883871 
z
" clip-path="url(#p38d7aecb9f)" style="fill: #1f77b4; opacity: 0.9"/>
   </g>
   <g id="patch_5">
    <path d="M 214.049569 239.690323 
L 246.087847 239.690323 
L 246.087847 246.903484 
L 214.049569 246.903484 
z
" clip-path="url(#p38d7aecb9f)" style="fill: #1f77b4; opacity: 0.9"/>
   </g>
   <g id="patch_6">
    <path d="M 294.145263 239.690323 
L 326.183541 239.690323 
L 326.183541 247.052516 
L 294.145263 247.052516 
z
" clip-path="url(#p38d7aecb9f)" style="fill: #1f77b4; opacity: 0.9"/>
   </g>
   <g id="patch_7">
    <path d="M 85.896459 239.690323 
L 117.934737 239.690323 
L 117.934737 25.441548 
L 85.896459 25.441548 
z
" clip-path="url(#p38d7aecb9f)" style="fill: #d62728; opacity: 0.9"/>
   </g>
   <g id="patch_8">
    <path d="M 165.992153 239.690323 
L 198.030431 239.690323 
L 198.030431 136.172516 
L 165.992153 136.172516 
z
" clip-path="url(#p38d7aecb9f)" style="fill: #d62728; opacity: 0.9"/>
   </g>
   <g id="patch_9">
    <path d="M 246.087847 239.690323 
L 278.126124 239.690323 
L 278.126124 264.727742 
L 246.087847 264.727742 
z
" clip-path="url(#p38d7aecb9f)" style="fill: #d62728; opacity: 0.9"/>
   </g>
   <g id="patch_10">
    <path d="M 326.183541 239.690323 
L 358.221818 239.690323 
L 358.221818 265.264258 
L 326.183541 265.264258 
z
" clip-path="url(#p38d7aecb9f)" style="fill: #d62728; opacity: 0.9"/>
   </g>
   <g id="patch_11">
    <path d="M 38.64 284.4 
L 38.64 7.2 
" style="fill: none; stroke: #000000; stroke-width: 0.8; stroke-linejoin: miter; stroke-linecap: square"/>
   </g>
   <g id="patch_12">
    <path d="M 373.44 284.4 
L 373.44 7.2 
" style="fill: none; stroke: #000000; stroke-width: 0.8; stroke-linejoin: miter; stroke-linecap: square"/>
   </g>
   <g id="patch_13">
    <path d="M 38.64 284.4 
L 373.44 284.4 
" style="fill: none; stroke: #000000; stroke-width: 0.8; stroke-linejoin: miter; stroke-linecap: square"/>
   </g>
   <g id="patch_14">
    <path d="M 38.64 7.2 
L 373.44 7.2 
" style="fill: none; stroke: #000000; stroke-width: 0.8; stroke-linejoin: miter; stroke-linecap: square"/>
   </g>
   <g id="text_10">
    <!-- 2.07 -->
    <g transform="translate(57.627321 171.99628) scale(0.14 -0.14)">
     <defs>
      <path id="TimesNewRomanPSMT-2e" d="M 800 606 
Q 947 606 1047 504 
Q 1147 403 1147 259 
Q 1147 116 1045 14 
Q 944 -88 800 -88 
Q 656 -88 554 14 
Q 453 116 453 259 
Q 453 406 554 506 
Q 656 606 800 606 
z
" transform="scale(0.015625)"/>
      <path id="TimesNewRomanPSMT-37" d="M 644 4238 
L 2916 4238 
L 2916 4119 
L 1503 -88 
L 1153 -88 
L 2419 3728 
L 1253 3728 
Q 900 3728 750 3644 
Q 488 3500 328 3200 
L 238 3234 
L 644 4238 
z
" transform="scale(0.015625)"/>
     </defs>
     <use xlink:href="#TimesNewRomanPSMT-32"/>
     <use xlink:href="#TimesNewRomanPSMT-2e" x="50"/>
     <use xlink:href="#TimesNewRomanPSMT-30" x="75"/>
     <use xlink:href="#TimesNewRomanPSMT-37" x="125"/>
    </g>
   </g>
   <g id="text_11">
    <!-- 1 -->
    <g transform="translate(146.473014 203.889183) scale(0.14 -0.14)">
     <defs>
      <path id="TimesNewRomanPSMT-31" d="M 750 3822 
L 1781 4325 
L 1884 4325 
L 1884 747 
Q 1884 391 1914 303 
Q 1944 216 2037 169 
Q 2131 122 2419 116 
L 2419 0 
L 825 0 
L 825 116 
Q 1125 122 1212 167 
Q 1300 213 1334 289 
Q 1369 366 1369 747 
L 1369 3034 
Q 1369 3497 1338 3628 
Q 1316 3728 1258 3775 
Q 1200 3822 1119 3822 
Q 1003 3822 797 3725 
L 750 3822 
z
" transform="scale(0.015625)"/>
     </defs>
     <use xlink:href="#TimesNewRomanPSMT-31"/>
    </g>
   </g>
   <g id="text_12">
    <!-- -0.242 -->
    <g transform="translate(211.987927 259.624734) scale(0.14 -0.14)">
     <defs>
      <path id="TimesNewRomanPSMT-2d" d="M 259 1672 
L 1875 1672 
L 1875 1200 
L 259 1200 
L 259 1672 
z
" transform="scale(0.015625)"/>
     </defs>
     <use xlink:href="#TimesNewRomanPSMT-2d"/>
     <use xlink:href="#TimesNewRomanPSMT-30" x="33.300781"/>
     <use xlink:href="#TimesNewRomanPSMT-2e" x="83.300781"/>
     <use xlink:href="#TimesNewRomanPSMT-32" x="108.300781"/>
     <use xlink:href="#TimesNewRomanPSMT-34" x="158.300781"/>
     <use xlink:href="#TimesNewRomanPSMT-32" x="208.300781"/>
    </g>
   </g>
   <g id="text_13">
    <!-- -0.247 -->
    <g transform="translate(292.083621 259.773766) scale(0.14 -0.14)">
     <use xlink:href="#TimesNewRomanPSMT-2d"/>
     <use xlink:href="#TimesNewRomanPSMT-30" x="33.300781"/>
     <use xlink:href="#TimesNewRomanPSMT-2e" x="83.300781"/>
     <use xlink:href="#TimesNewRomanPSMT-32" x="108.300781"/>
     <use xlink:href="#TimesNewRomanPSMT-34" x="158.300781"/>
     <use xlink:href="#TimesNewRomanPSMT-37" x="208.300781"/>
    </g>
   </g>
   <g id="text_14">
    <!-- 7.188 -->
    <g transform="translate(86.165598 19.446861) scale(0.14 -0.14)">
     <defs>
      <path id="TimesNewRomanPSMT-38" d="M 1228 2134 
Q 725 2547 579 2797 
Q 434 3047 434 3316 
Q 434 3728 753 4026 
Q 1072 4325 1600 4325 
Q 2113 4325 2425 4047 
Q 2738 3769 2738 3413 
Q 2738 3175 2569 2928 
Q 2400 2681 1866 2347 
Q 2416 1922 2594 1678 
Q 2831 1359 2831 1006 
Q 2831 559 2490 242 
Q 2150 -75 1597 -75 
Q 994 -75 656 303 
Q 388 606 388 966 
Q 388 1247 577 1523 
Q 766 1800 1228 2134 
z
M 1719 2469 
Q 2094 2806 2194 3001 
Q 2294 3197 2294 3444 
Q 2294 3772 2109 3958 
Q 1925 4144 1606 4144 
Q 1288 4144 1088 3959 
Q 888 3775 888 3528 
Q 888 3366 970 3203 
Q 1053 3041 1206 2894 
L 1719 2469 
z
M 1375 2016 
Q 1116 1797 991 1539 
Q 866 1281 866 981 
Q 866 578 1086 336 
Q 1306 94 1647 94 
Q 1984 94 2187 284 
Q 2391 475 2391 747 
Q 2391 972 2272 1150 
Q 2050 1481 1375 2016 
z
" transform="scale(0.015625)"/>
     </defs>
     <use xlink:href="#TimesNewRomanPSMT-37"/>
     <use xlink:href="#TimesNewRomanPSMT-2e" x="50"/>
     <use xlink:href="#TimesNewRomanPSMT-31" x="75"/>
     <use xlink:href="#TimesNewRomanPSMT-38" x="125"/>
     <use xlink:href="#TimesNewRomanPSMT-38" x="175"/>
    </g>
   </g>
   <g id="text_15">
    <!-- 3.473 -->
    <g transform="translate(166.261292 130.177829) scale(0.14 -0.14)">
     <defs>
      <path id="TimesNewRomanPSMT-33" d="M 325 3431 
Q 506 3859 782 4092 
Q 1059 4325 1472 4325 
Q 1981 4325 2253 3994 
Q 2459 3747 2459 3466 
Q 2459 3003 1878 2509 
Q 2269 2356 2469 2072 
Q 2669 1788 2669 1403 
Q 2669 853 2319 450 
Q 1863 -75 997 -75 
Q 569 -75 414 31 
Q 259 138 259 259 
Q 259 350 332 419 
Q 406 488 509 488 
Q 588 488 669 463 
Q 722 447 909 348 
Q 1097 250 1169 231 
Q 1284 197 1416 197 
Q 1734 197 1970 444 
Q 2206 691 2206 1028 
Q 2206 1275 2097 1509 
Q 2016 1684 1919 1775 
Q 1784 1900 1550 2001 
Q 1316 2103 1072 2103 
L 972 2103 
L 972 2197 
Q 1219 2228 1467 2375 
Q 1716 2522 1828 2728 
Q 1941 2934 1941 3181 
Q 1941 3503 1739 3701 
Q 1538 3900 1238 3900 
Q 753 3900 428 3381 
L 325 3431 
z
" transform="scale(0.015625)"/>
     </defs>
     <use xlink:href="#TimesNewRomanPSMT-33"/>
     <use xlink:href="#TimesNewRomanPSMT-2e" x="50"/>
     <use xlink:href="#TimesNewRomanPSMT-34" x="75"/>
     <use xlink:href="#TimesNewRomanPSMT-37" x="125"/>
     <use xlink:href="#TimesNewRomanPSMT-33" x="175"/>
    </g>
   </g>
   <g id="text_16">
    <!-- -0.84 -->
    <g transform="translate(247.526204 277.448992) scale(0.14 -0.14)">
     <use xlink:href="#TimesNewRomanPSMT-2d"/>
     <use xlink:href="#TimesNewRomanPSMT-30" x="33.300781"/>
     <use xlink:href="#TimesNewRomanPSMT-2e" x="83.300781"/>
     <use xlink:href="#TimesNewRomanPSMT-38" x="108.300781"/>
     <use xlink:href="#TimesNewRomanPSMT-34" x="158.300781"/>
    </g>
   </g>
   <g id="text_17">
    <!-- -0.858 -->
    <g transform="translate(324.121898 277.985508) scale(0.14 -0.14)">
     <defs>
      <path id="TimesNewRomanPSMT-35" d="M 2778 4238 
L 2534 3706 
L 1259 3706 
L 981 3138 
Q 1809 3016 2294 2522 
Q 2709 2097 2709 1522 
Q 2709 1188 2573 903 
Q 2438 619 2231 419 
Q 2025 219 1772 97 
Q 1413 -75 1034 -75 
Q 653 -75 479 54 
Q 306 184 306 341 
Q 306 428 378 495 
Q 450 563 559 563 
Q 641 563 702 538 
Q 763 513 909 409 
Q 1144 247 1384 247 
Q 1750 247 2026 523 
Q 2303 800 2303 1197 
Q 2303 1581 2056 1914 
Q 1809 2247 1375 2428 
Q 1034 2569 447 2591 
L 1259 4238 
L 2778 4238 
z
" transform="scale(0.015625)"/>
     </defs>
     <use xlink:href="#TimesNewRomanPSMT-2d"/>
     <use xlink:href="#TimesNewRomanPSMT-30" x="33.300781"/>
     <use xlink:href="#TimesNewRomanPSMT-2e" x="83.300781"/>
     <use xlink:href="#TimesNewRomanPSMT-38" x="108.300781"/>
     <use xlink:href="#TimesNewRomanPSMT-35" x="158.300781"/>
     <use xlink:href="#TimesNewRomanPSMT-38" x="208.300781"/>
    </g>
   </g>
   <g id="legend_1">
    <g id="patch_15">
     <path d="M 284.68 58.634687 
L 363.64 58.634687 
Q 366.44 58.634687 366.44 55.834687 
L 366.44 17 
Q 366.44 14.2 363.64 14.2 
L 284.68 14.2 
Q 281.88 14.2 281.88 17 
L 281.88 55.834687 
Q 281.88 58.634687 284.68 58.634687 
z
" style="fill: #ffffff; opacity: 0.8; stroke: #cccccc; stroke-linejoin: miter"/>
    </g>
    <g id="patch_16">
     <path d="M 287.48 29.6 
L 315.48 29.6 
L 315.48 19.8 
L 287.48 19.8 
z
" style="fill: #1f77b4; opacity: 0.9"/>
    </g>
    <g id="text_18">
     <!-- $\mathit{dS}_г$/$\mathit{S}_г$ -->
     <g transform="translate(326.68 29.6) scale(0.14 -0.14)">
      <use xlink:href="#STIXGeneral-Italic-64" transform="translate(0 0.5625)"/>
      <use xlink:href="#STIXGeneral-Italic-53" transform="translate(49.999985 0.5625)"/>
      <use xlink:href="#TimesNewRomanPSMT-433" transform="translate(99.999969 -25.2) scale(0.7)"/>
      <use xlink:href="#TimesNewRomanPSMT-2f" transform="translate(133.004657 0.5625)"/>
      <use xlink:href="#STIXGeneral-Italic-53" transform="translate(160.78786 0.5625)"/>
      <use xlink:href="#TimesNewRomanPSMT-433" transform="translate(210.787845 -25.2) scale(0.7)"/>
     </g>
    </g>
    <g id="patch_17">
     <path d="M 287.48 50.04 
L 315.48 50.04 
L 315.48 40.24 
L 287.48 40.24 
z
" style="fill: #d62728; opacity: 0.9"/>
    </g>
    <g id="text_19">
     <!-- $\mathit{dP}$/$\mathit{P}$ -->
     <g transform="translate(326.68 50.04) scale(0.14 -0.14)">
      <use xlink:href="#STIXGeneral-Italic-64" transform="translate(0 0.5625)"/>
      <use xlink:href="#STIXGeneral-Italic-50" transform="translate(49.999985 0.5625)"/>
      <use xlink:href="#TimesNewRomanPSMT-2f" transform="translate(111.099976 0.5625)"/>
      <use xlink:href="#STIXGeneral-Italic-50" transform="translate(138.883179 0.5625)"/>
     </g>
    </g>
   </g>
  </g>
 </g>
 <defs>
  <clipPath id="p38d7aecb9f">
   <rect x="38.64" y="7.2" width="334.8" height="277.2"/>
  </clipPath>
 </defs>
</svg>
